{
 "cells": [
  {
   "cell_type": "code",
   "execution_count": 15,
   "metadata": {
    "ExecuteTime": {
     "end_time": "2020-05-06T06:45:24.795815Z",
     "start_time": "2020-05-06T06:45:24.780804Z"
    }
   },
   "outputs": [],
   "source": [
    "import os\n",
    "import pickle\n",
    "import numpy as np\n",
    "from mutagen.mp3 import MP3\n",
    "from mutagen.mp4 import MP4\n",
    "from mutagen.id3 import ID3, ID3NoHeaderError\n",
    "\n",
    "max_duration = 10 * 60 # avoid adding mixes to mix\n",
    "\n",
    "def munge(filename):\n",
    "    if os.name == 'nt':\n",
    "        return filename\n",
    "    else:\n",
    "        return filename.replace('\\\\', '/').replace(':', '_')\n",
    "    \n",
    "def get_track_duration(filename):\n",
    "    duration = 0\n",
    "    if filename[-3:].lower() == 'mp3':\n",
    "        duration = MP3(munge(filename)).info.length\n",
    "    elif filename[-3:].lower() == 'm4a':\n",
    "        duration = MP4(munge(filename)).info.length\n",
    "    return duration\n",
    "\n",
    "def most_similar_by_vec(positive=[], negative=[], topn=5, noise=0):\n",
    "    if isinstance(positive, str):\n",
    "        positive = [positive] # broadcast to list\n",
    "    if isinstance(negative, str):\n",
    "        negative = [negative] # broadcast to list\n",
    "    mp3_vec_i = np.sum([i for i in positive] + [-i for i in negative], axis=0)\n",
    "    mp3_vec_i += np.random.normal(0, noise * np.linalg.norm(mp3_vec_i), len(mp3_vec_i))\n",
    "    similar = []\n",
    "    for track_j in mp3tovec:\n",
    "        mp3_vec_j = mp3tovec[track_j]\n",
    "        cos_proximity = np.dot(mp3_vec_i, mp3_vec_j) / (np.linalg.norm(mp3_vec_i) * np.linalg.norm(mp3_vec_j))\n",
    "        similar.append((track_j, cos_proximity))\n",
    "    return sorted(similar, key=lambda x:-x[1])[:topn]\n",
    "\n",
    "def join_the_dots(tracks, n=5, noise=0): # create a musical journey between given track \"waypoints\"\n",
    "    playlist = []\n",
    "    start = tracks[0]\n",
    "    start_vec = mp3tovec[start]\n",
    "    for end in tracks[1:]:\n",
    "        end_vec = mp3tovec[end]\n",
    "        playlist.append(start)\n",
    "        for i in range(n-1):\n",
    "            candidates = most_similar_by_vec(positive=[(n-i+1)/n * start_vec + (i+1)/n * end_vec], topn=10, noise=noise)\n",
    "            for j in range(10):\n",
    "                if not candidates[j][0] in playlist \\\n",
    "                        and candidates[j][0] != start \\\n",
    "                        and candidates[j][0] != end \\\n",
    "                        and get_track_duration(candidates[j][0]) < max_duration:\n",
    "                    break\n",
    "            playlist.append(candidates[j][0])\n",
    "        start = end\n",
    "        start_vec = end_vec\n",
    "    playlist.append(end)\n",
    "    return playlist"
   ]
  },
  {
   "cell_type": "code",
   "execution_count": 16,
   "metadata": {
    "ExecuteTime": {
     "end_time": "2020-05-06T06:45:26.622982Z",
     "start_time": "2020-05-06T06:45:26.603545Z"
    }
   },
   "outputs": [],
   "source": [
    "mp3tovec = pickle.load(open('../Pickles/mp3tovecs/mp3tovec.p', 'rb'))"
   ]
  },
  {
   "cell_type": "code",
   "execution_count": 17,
   "metadata": {
    "ExecuteTime": {
     "end_time": "2020-05-06T06:45:29.924588Z",
     "start_time": "2020-05-06T06:45:28.134810Z"
    }
   },
   "outputs": [],
   "source": [
    "playlist = join_the_dots([\n",
    "    \"H:\\\\Music\\\\Aretha Franklin\\\\I Never Loved a Man the Way I Love You\\\\01 Respect.mp3\", # soul\n",
    "    \"H:\\\\Music\\\\James Brown\\\\The Godfather - The Very Best of James B\\\\02 I Got You (I Feel Good).m4a\", # funk\n",
    "    \"H:\\\\Music\\\\Jurassic 5\\\\Jurassic 5 LP\\\\Lesson 6_ The Lecture.mp3\", # hip-hop\n",
    "    \"H:\\\\Music\\\\Roni Size\\\\Breakbeat Era - Ultra Obscene\\\\Terrible Funk.mp3\", # drum 'n' bass\n",
    "    \"H:\\\\Music\\\\Sven Väth\\\\In the Mix_ The Sound of the Sixteenth S\\\\14 Eclipse.m4a\", # techno\n",
    "], n=7, noise=0)"
   ]
  },
  {
   "cell_type": "code",
   "execution_count": 20,
   "metadata": {
    "ExecuteTime": {
     "end_time": "2020-05-06T06:46:57.876525Z",
     "start_time": "2020-05-06T06:46:57.838750Z"
    }
   },
   "outputs": [
    {
     "name": "stdout",
     "output_type": "stream",
     "text": [
      "H:\\Music\\Aretha Franklin\\I Never Loved a Man the Way I Love You\\01 Respect.mp3\n",
      "H:\\Music\\Dee Edwards\\Gilles Peterson Digs America Vol.2\\06 Why Can't There Be Love.mp3\n",
      "H:\\Music\\Compilations\\Northern Soul (The Soundtrack) [Extended\\31 I Just Can_t Live My Life (Withou.m4a\n",
      "H:\\Music\\Carnegie Mellon Jazz Band\\Unknown Album\\The First Thing I Do.mp3\n",
      "H:\\Music\\Compilations\\Mad Men (Music from the Series) Vol. 2\\10 Pot Can't Talk About the Kettle.m4a\n",
      "H:\\Music\\Tom Jones\\Unknown Album\\Ain't No Sunshine.mp3\n",
      "H:\\Music\\Janis Joplin\\The Essential Janis Joplin\\14 Trust Me.m4a\n",
      "H:\\Music\\James Brown\\The Godfather - The Very Best of James B\\02 I Got You (I Feel Good).m4a\n",
      "H:\\Music\\Compilations\\Mad Men (Music from the Series) Vol. 2\\09 Let's Twist Again.m4a\n",
      "H:\\Music\\Cut Chemist Feat. Hymnal\\Paul's Second Compilation\\06 What's The Altitude.mp3\n",
      "H:\\Music\\Nicolas Repac\\Swing swing\\07 Swing Swing.mp3\n",
      "H:\\Music\\Cut Chemist, DJ Shadow, Double Dee, Stei\\The Ultimate Lessons\\06 Lesson 6 - The Lecture (Original.m4a\n",
      "H:\\Music\\Compilations\\70 Minutes Of Madness - Journeys By DJ S\\18 Mag.m4a\n",
      "H:\\Music\\Cut Chemist, DJ Shadow, Double Dee, Stei\\The Ultimate Lessons\\07 Live Lesson A (Cut Chemist + Shor.m4a\n",
      "H:\\Music\\Jurassic 5\\Jurassic 5 LP\\Lesson 6_ The Lecture.mp3\n",
      "H:\\Music\\Cut Chemist\\Paul's Second Compilation\\02 (My 1st) Big Break.mp3\n",
      "H:\\Music\\Compilations\\Night Dubbin' Disc1\\08 The Key [Dub].mp3\n",
      "H:\\Music\\Cut Chemist, DJ Shadow, Double Dee, Stei\\The Ultimate Lessons\\04 Lesson 4 (DJ Shadow).m4a\n",
      "H:\\Music\\The Prodigy\\The Fat Of The Land\\06 Mind Fields.mp3\n",
      "H:\\Music\\D.Kay\\The Prophet EP\\The Prophet.mp3\n",
      "H:\\Music\\Compilations\\Logical Progression Level 2 [Disc 1]\\1-01 Visions of Mars.m4a\n",
      "H:\\Music\\Roni Size\\Breakbeat Era - Ultra Obscene\\Terrible Funk.mp3\n",
      "H:\\Music\\Compilations\\Bukem in Session\\16 Not Forgotten.m4a\n",
      "H:\\Music\\RAM Trilogy\\Chapter 5\\Milky Way.mp3\n",
      "H:\\Music\\LTJ Bukem\\Logical Progression CD#1 (GLRCD001)\\04 Logical Progression CD#1 - [04] -.mp3\n",
      "H:\\Music\\E-Z Rollers\\Storm From The East\\08 Walk This Land.mp3\n",
      "H:\\Music\\Âme\\Rej\\01 Rej.m4a\n",
      "H:\\Music\\Compilations\\Hed Kandi Beach House 2011\\43 Bangaday (Original Mix).m4a\n",
      "H:\\Music\\Sven Väth\\In the Mix_ The Sound of the Sixteenth S\\14 Eclipse.m4a\n",
      "Total duration = 2:28:21s\n"
     ]
    }
   ],
   "source": [
    "total_duration = 0\n",
    "tracks = []\n",
    "for track in playlist:\n",
    "    tracks.append('-i')\n",
    "    tracks.append(munge(track))\n",
    "    total_duration += get_track_duration(track)\n",
    "    print(f'{track}')\n",
    "print(f'Total duration = {total_duration//60//60:.0f}:{total_duration//60%60:02.0f}:{total_duration%60:02.0f}s')"
   ]
  },
  {
   "cell_type": "code",
   "execution_count": 21,
   "metadata": {
    "ExecuteTime": {
     "end_time": "2020-05-06T06:47:08.608289Z",
     "start_time": "2020-05-06T06:47:08.595112Z"
    }
   },
   "outputs": [],
   "source": [
    "import subprocess as sp\n",
    "pipe = sp.Popen(['ffmpeg',\n",
    "                 '-y', # replace if exists\n",
    "                '-i', '../static/meta_data.txt'] + # use this meta data\n",
    "                tracks + # append playlist tracks\n",
    "                 ['-filter_complex', f'loudnorm=I=-14,concat=n={len(playlist)}:v=0:a=1[out]', # normalize and concatenate\n",
    "                 '-map', '[out]', # final output\n",
    "                 'mix.mp3'], # output file\n",
    "               stdin=sp.PIPE,stdout=sp.PIPE, stderr=sp.PIPE)"
   ]
  },
  {
   "cell_type": "code",
   "execution_count": 22,
   "metadata": {
    "ExecuteTime": {
     "end_time": "2020-05-06T06:50:09.986544Z",
     "start_time": "2020-05-06T06:47:10.126429Z"
    }
   },
   "outputs": [
    {
     "data": {
      "text/plain": [
       "b'ffmpeg version 3.4.6-0ubuntu0.18.04.1 Copyright (c) 2000-2019 the FFmpeg developers\\n  built with gcc 7 (Ubuntu 7.3.0-16ubuntu3)\\n  configuration: --prefix=/usr --extra-version=0ubuntu0.18.04.1 --toolchain=hardened --libdir=/usr/lib/x86_64-linux-gnu --incdir=/usr/include/x86_64-linux-gnu --enable-gpl --disable-stripping --enable-avresample --enable-avisynth --enable-gnutls --enable-ladspa --enable-libass --enable-libbluray --enable-libbs2b --enable-libcaca --enable-libcdio --enable-libflite --enable-libfontconfig --enable-libfreetype --enable-libfribidi --enable-libgme --enable-libgsm --enable-libmp3lame --enable-libmysofa --enable-libopenjpeg --enable-libopenmpt --enable-libopus --enable-libpulse --enable-librubberband --enable-librsvg --enable-libshine --enable-libsnappy --enable-libsoxr --enable-libspeex --enable-libssh --enable-libtheora --enable-libtwolame --enable-libvorbis --enable-libvpx --enable-libwavpack --enable-libwebp --enable-libx265 --enable-libxml2 --enable-libxvid --enable-libzmq --enable-libzvbi --enable-omx --enable-openal --enable-opengl --enable-sdl2 --enable-libdc1394 --enable-libdrm --enable-libiec61883 --enable-chromaprint --enable-frei0r --enable-libopencv --enable-libx264 --enable-shared\\n  libavutil      55. 78.100 / 55. 78.100\\n  libavcodec     57.107.100 / 57.107.100\\n  libavformat    57. 83.100 / 57. 83.100\\n  libavdevice    57. 10.100 / 57. 10.100\\n  libavfilter     6.107.100 /  6.107.100\\n  libavresample   3.  7.  0 /  3.  7.  0\\n  libswscale      4.  8.100 /  4.  8.100\\n  libswresample   2.  9.100 /  2.  9.100\\n  libpostproc    54.  7.100 / 54.  7.100\\nInput #0, ffmetadata, from \\'../static/meta_data.txt\\':\\n  Metadata:\\n    album           : Mix \\n    artist          : Deej-A.I. \\n    title           : Mix\\n  Duration: N/A, start: 0.000000, bitrate: N/A\\n[mp3 @ 0x5622b5df55e0] Skipping 4 bytes of junk at 84134.\\n[mp3 @ 0x5622b5df55e0] Estimating duration from bitrate, this may be inaccurate\\nInput #1, mp3, from \\'H_/Music/Aretha Franklin/I Never Loved a Man the Way I Love You/01 Respect.mp3\\':\\n  Metadata:\\n    comment         : Recorded with TheLastRipper from my Playlist\\n    title           : Respect\\n    artist          : Aretha Franklin\\n    album_artist    : Aretha Franklin\\n    album           : I Never Loved a Man the Way I Love You\\n    TBPM            : 114\\n    com.wildbits.bpmer.trackdata: AAAAQAEAAAAAAAEfAACsRABjxgAAWmHvANLTuAAAtKQAALZcAACuoAABGgwAW5/0AAAAcgAAAAAAAAAAAAAAAAAA\\n    iTunNORM        :  00000327 00000000 00001B9C 00000000 0001ADC7 00000000 00005C18 00000000 0001ADC7 00000000\\n    date            : 1967\\n    track           : 1/14\\n    disc            : 1/1\\n    genre           : Classic Soul/R&B\\n  Duration: 00:02:27.94, start: 0.000000, bitrate: 132 kb/s\\n    Stream #1:0: Audio: mp3, 44100 Hz, stereo, s16p, 128 kb/s\\n    Stream #1:1: Video: mjpeg, yuvj444p(pc, bt470bg/unknown/unknown), 301x300 [SAR 1:1 DAR 301:300], 90k tbr, 90k tbn, 90k tbc\\n    Metadata:\\n      comment         : Other\\n[mp3 @ 0x5622b5dfa000] Estimating duration from bitrate, this may be inaccurate\\nInput #2, mp3, from \\'H_/Music/Dee Edwards/Gilles Peterson Digs America Vol.2/06 Why Can\\'t There Be Love.mp3\\':\\n  Metadata:\\n    title           : Why Can\\'t There Be Love\\n    artist          : Dee Edwards\\n    composer        : Ubiquity\\n    album           : Gilles Peterson Digs America Vol.2\\n    track           : 6/18\\n    TBPM            : 103.29\\n    date            : 2007\\n  Duration: 00:02:44.63, start: 0.000000, bitrate: 334 kb/s\\n    Stream #2:0: Audio: mp3, 44100 Hz, stereo, s16p, 320 kb/s\\n[mov,mp4,m4a,3gp,3g2,mj2 @ 0x5622b5e2ba40] stream 0, timescale not set\\nInput #3, mov,mp4,m4a,3gp,3g2,mj2, from \\'H_/Music/Compilations/Northern Soul (The Soundtrack) [Extended/31 I Just Can_t Live My Life (Withou.m4a\\':\\n  Metadata:\\n    major_brand     : M4A \\n    minor_version   : 0\\n    compatible_brands: M4A mp42isom\\n    creation_time   : 1974-03-09T11:09:04.000000Z\\n    iTunSMPB        :  00000000 00000840 000003FC 000000000064DFC4 00000000 00000000 00000000 00000000 00000000 00000000 00000000 00000000\\n    iTunNORM        :  000019B5 000019B5 00007C9C 00007C9B 0001DC02 0001DC02 00007DD0 00007DD0 0000A571 0000A571\\n    title           : I Just Can\\xe2\\x80\\x99t Live My Life (Without You Babe)\\xc2\\xa0 [7\" Mix]\\n    artist          : Linda Jones\\n    composer        : G. Kerr\\n    album           : Northern Soul (The Soundtrack) [Extended Version]\\n    genre           : Soundtrack\\n    track           : 31/54\\n    disc            : 1/1\\n    compilation     : 1\\n    gapless_playback: 0\\n    date            : 2014-09-15T07:00:00Z\\n    account_id      : teticio@gmail.com\\n    rating          : 0\\n    media_type      : 1\\n    purchase_date   : 2015-10-06 18:42:44\\n    iTunMOVI        : <?xml version=\"1.0\" encoding=\"UTF-8\"?>\\n                    : <!DOCTYPE plist PUBLIC \"-//Apple//DTD PLIST 1.0//EN\" \"http://www.apple.com/DTDs/PropertyList-1.0.dtd\">\\n                    : <plist version=\"1.0\">\\n                    : <dict>\\n                    : \\t<key>asset-info</key>\\n                    : \\t<dict>\\n                    : \\t\\t<key>file-size</key>\\n                    : \\t\\t<integer>5525562</integer>\\n                    : \\t\\t<key>flavor</key>\\n                    : \\t\\t<string>2:256</string>\\n                    : \\t</dict>\\n                    : </dict>\\n                    : </plist>\\n                    : \\n  Duration: 00:02:29.98, start: 0.047889, bitrate: 294 kb/s\\n    Stream #3:0(eng): Audio: aac (LC) (mp4a / 0x6134706D), 44100 Hz, stereo, fltp, 263 kb/s (default)\\n    Metadata:\\n      creation_time   : 1974-03-09T11:09:04.000000Z\\n    Stream #3:1: Video: mjpeg, yuvj444p(pc, bt470bg/unknown/unknown), 1400x1400 [SAR 300:300 DAR 1:1], 90k tbr, 90k tbn, 90k tbc\\n[mp3 @ 0x5622b5e8ebc0] Estimating duration from bitrate, this may be inaccurate\\nInput #4, mp3, from \\'H_/Music/Carnegie Mellon Jazz Band/Unknown Album/The First Thing I Do.mp3\\':\\n  Metadata:\\n    title           : The First Thing I Do\\n    artist          : Carnegie Mellon Jazz Band\\n    TBPM            : 96\\n    iTunNORM        :  000005F5 00000000 000017D1 00000000 000186CE 00000000 00005C7A 00000000 0000EA77 00000000\\n  Duration: 00:03:08.90, start: 0.000000, bitrate: 195 kb/s\\n    Stream #4:0: Audio: mp3, 44100 Hz, stereo, s16p, 192 kb/s\\n    Stream #4:1: Video: mjpeg, yuvj444p(pc, bt470bg/unknown/unknown), 236x236 [SAR 1:1 DAR 1:1], 90k tbr, 90k tbn, 90k tbc\\n    Metadata:\\n      comment         : Other\\n[mov,mp4,m4a,3gp,3g2,mj2 @ 0x5622b5eb2440] stream 0, timescale not set\\nInput #5, mov,mp4,m4a,3gp,3g2,mj2, from \\'H_/Music/Compilations/Mad Men (Music from the Series) Vol. 2/10 Pot Can\\'t Talk About the Kettle.m4a\\':\\n  Metadata:\\n    major_brand     : M4A \\n    minor_version   : 0\\n    compatible_brands: M4A mp42isom\\n    creation_time   : 2019-08-03T02:56:04.000000Z\\n    iTunSMPB        :  00000000 00000840 000002F8 00000000007CA8C8 00000000 00000000 00000000 00000000 00000000 00000000 00000000 00000000\\n    iTunNORM        :  00001877 00001267 0000D439 0000A8A3 000272F0 000272F0 00007D1A 00007B26 00012240 000272F0\\n    title           : Pot Can\\'t Talk About the Kettle\\n    artist          : Helene Smith\\n    album_artist    : Various Artists\\n    album           : Mad Men (Music from the Series) Vol. 2\\n    genre           : Bandas sonoras\\n    track           : 10/12\\n    disc            : 1/1\\n    compilation     : 1\\n    gapless_playback: 0\\n    date            : 2008-09-23T07:00:00Z\\n    account_id      : teticio@gmail.com\\n    copyright       : \\xe2\\x84\\x97 2008 Lionsgate\\n    rating          : 0\\n    media_type      : 1\\n    purchase_date   : 2012-11-09 21:06:57\\n    iTunMOVI        : <?xml version=\"1.0\" encoding=\"UTF-8\"?>\\n                    : <!DOCTYPE plist PUBLIC \"-//Apple//DTD PLIST 1.0//EN\" \"http://www.apple.com/DTDs/PropertyList-1.0.dtd\">\\n                    : <plist version=\"1.0\">\\n                    : <dict>\\n                    : \\t<key>asset-info</key>\\n                    : \\t<dict>\\n                    : \\t\\t<key>file-size</key>\\n                    : \\t\\t<integer>6346255</integer>\\n                    : \\t\\t<key>flavor</key>\\n                    : \\t\\t<string>2:256</string>\\n                    : \\t</dict>\\n                    : </dict>\\n                    : </plist>\\n                    : \\n  Duration: 00:03:05.32, start: 0.047889, bitrate: 273 kb/s\\n    Stream #5:0(eng): Audio: aac (LC) (mp4a / 0x6134706D), 44100 Hz, stereo, fltp, 248 kb/s (default)\\n    Metadata:\\n      creation_time   : 2019-08-03T02:56:04.000000Z\\n    Stream #5:1: Video: mjpeg, yuvj444p(pc, bt470bg/unknown/unknown), 600x600 [SAR 72:72 DAR 1:1], 90k tbr, 90k tbn, 90k tbc\\n[mp3 @ 0x5622b5eca6e0] Skipping 480 bytes of junk at 323038.\\n[mp3 @ 0x5622b5eca6e0] Estimating duration from bitrate, this may be inaccurate\\nInput #6, mp3, from \\'H_/Music/Tom Jones/Unknown Album/Ain\\'t No Sunshine.mp3\\':\\n  Metadata:\\n    title           : Ain\\'t No Sunshine\\n    artist          : Tom Jones\\n    genre           : Easy Listening\\n    TBPM            : 146\\n    iTunNORM        :  00000366 00000340 00000EB1 00000E58 00013895 00013895 000047D8 000040BD 0001D4EA 000186B5\\n  Duration: 00:02:37.01, start: 0.000000, bitrate: 176 kb/s\\n    Stream #6:0: Audio: mp3, 48000 Hz, stereo, s16p, 160 kb/s\\n    Stream #6:1: Video: png, rgb24(pc), 400x400 [SAR 2835:2835 DAR 1:1], 90k tbr, 90k tbn, 90k tbc\\n    Metadata:\\n      comment         : Other\\n[mov,mp4,m4a,3gp,3g2,mj2 @ 0x5622b5ed81c0] stream 0, timescale not set\\nInput #7, mov,mp4,m4a,3gp,3g2,mj2, from \\'H_/Music/Janis Joplin/The Essential Janis Joplin/14 Trust Me.m4a\\':\\n  Metadata:\\n    major_brand     : M4A \\n    minor_version   : 512\\n    compatible_brands: isomiso2\\n    album_artist    : Janis Joplin\\n    track           : 14\\n    artist          : Janis Joplin\\n    album           : The Essential Janis Joplin\\n    date            : 1995\\n    genre           : Rock\\n    title           : Trust Me\\n  Duration: 00:03:16.02, start: 0.000000, bitrate: 259 kb/s\\n    Stream #7:0(und): Audio: aac (LC) (mp4a / 0x6134706D), 44100 Hz, stereo, fltp, 256 kb/s (default)\\n    Metadata:\\n      handler_name    : SoundHandler\\n    Stream #7:1: Video: mjpeg, yuvj420p(pc, bt470bg/unknown/unknown), 600x600 [SAR 72:72 DAR 1:1], 90k tbr, 90k tbn, 90k tbc\\n[mov,mp4,m4a,3gp,3g2,mj2 @ 0x5622b6033220] stream 0, timescale not set\\nInput #8, mov,mp4,m4a,3gp,3g2,mj2, from \\'H_/Music/James Brown/The Godfather - The Very Best of James B/02 I Got You (I Feel Good).m4a\\':\\n  Metadata:\\n    major_brand     : M4A \\n    minor_version   : 512\\n    compatible_brands: isomiso2\\n    album_artist    : James Brown\\n    track           : 2\\n    artist          : James Brown\\n    album           : The Godfather - The Very Best of James Brown\\n    date            : 2002\\n    genre           : R&B/Soul\\n    title           : I Got You (I Feel Good)\\n    composer        : James Brown\\n  Duration: 00:02:48.02, start: 0.000000, bitrate: 259 kb/s\\n    Stream #8:0(und): Audio: aac (LC) (mp4a / 0x6134706D), 44100 Hz, stereo, fltp, 256 kb/s (default)\\n    Metadata:\\n      handler_name    : SoundHandler\\n    Stream #8:1: Video: mjpeg, yuvj444p(pc, bt470bg/unknown/unknown), 600x595 [SAR 72:72 DAR 120:119], 90k tbr, 90k tbn, 90k tbc\\n[mov,mp4,m4a,3gp,3g2,mj2 @ 0x5622b6031500] stream 0, timescale not set\\nInput #9, mov,mp4,m4a,3gp,3g2,mj2, from \\'H_/Music/Compilations/Mad Men (Music from the Series) Vol. 2/09 Let\\'s Twist Again.m4a\\':\\n  Metadata:\\n    major_brand     : M4A \\n    minor_version   : 0\\n    compatible_brands: M4A mp42isom\\n    creation_time   : 1998-04-27T21:25:24.000000Z\\n    iTunSMPB        :  00000000 00000840 0000034C 00000000005D2874 00000000 00000000 00000000 00000000 00000000 00000000 00000000 00000000\\n    iTunNORM        :  0000176A 0000189A 00005B7C 0000620C 0000A571 0000A571 00007D10 00007D19 0001CD7F 00004E5E\\n    title           : Let\\'s Twist Again\\n    artist          : Chubby Checker\\n    album_artist    : Various Artists\\n    album           : Mad Men (Music from the Series) Vol. 2\\n    genre           : Bandas sonoras\\n    track           : 9/12\\n    disc            : 1/1\\n    compilation     : 1\\n    gapless_playback: 0\\n    date            : 2008-09-23T07:00:00Z\\n    account_id      : teticio@gmail.com\\n    copyright       : \\xe2\\x84\\x97 2008 Lionsgate\\n    rating          : 0\\n    media_type      : 1\\n    purchase_date   : 2012-11-09 21:06:57\\n    iTunMOVI        : <?xml version=\"1.0\" encoding=\"UTF-8\"?>\\n                    : <!DOCTYPE plist PUBLIC \"-//Apple//DTD PLIST 1.0//EN\" \"http://www.apple.com/DTDs/PropertyList-1.0.dtd\">\\n                    : <plist version=\"1.0\">\\n                    : <dict>\\n                    : \\t<key>asset-info</key>\\n                    : \\t<dict>\\n                    : \\t\\t<key>file-size</key>\\n                    : \\t\\t<integer>4892743</integer>\\n                    : \\t\\t<key>flavor</key>\\n                    : \\t\\t<string>2:256</string>\\n                    : \\t</dict>\\n                    : </dict>\\n                    : </plist>\\n                    : \\n  Duration: 00:02:18.51, start: 0.047889, bitrate: 282 kb/s\\n    Stream #9:0(eng): Audio: aac (LC) (mp4a / 0x6134706D), 44100 Hz, stereo, fltp, 248 kb/s (default)\\n    Metadata:\\n      creation_time   : 1998-04-27T21:25:24.000000Z\\n    Stream #9:1: Video: mjpeg, yuvj444p(pc, bt470bg/unknown/unknown), 600x600 [SAR 72:72 DAR 1:1], 90k tbr, 90k tbn, 90k tbc\\n[mp3 @ 0x5622b602eb80] Estimating duration from bitrate, this may be inaccurate\\nInput #10, mp3, from \\'H_/Music/Cut Chemist Feat. Hymnal/Paul\\'s Second Compilation/06 What\\'s The Altitude.mp3\\':\\n  Metadata:\\n    iTunPGAP        : 0\\n    encoded_by      : iTunes v7.0.2\\n    iTunSMPB        :  00000000 00000210 0000093C 0000000000B16CB4 00000000 00506BC1 00000000 00000000 00000000 00000000 00000000 00000000\\n    iTunes_CDDB_1   : E1100712+307916+18+150+10659+31923+49566+60907+77199+94187+113634+141799+162016+174550+188884+208659+221278+236275+249991+271079+287598\\n    iTunes_CDDB_TrackNumber: 12\\n    album           : Paul\\'s Second Compilation\\n    TBPM            : 138\\n    iTunNORM        :  0000020A 00000000 00001548 00000000 0000C350 00000000 00004699 00000000 0000C350 00000000\\n    artist          : Cut Chemist Feat. Hymnal\\n    title           : What\\'s The Altitude\\n    date            : 2006\\n    track           : 6/12\\n    disc            : 1/1\\n    genre           : Progressive Rap/Hip-Hop\\n    comment         : Cleaned by TuneUp!\\n  Duration: 00:04:23.74, start: 0.000000, bitrate: 162 kb/s\\n    Stream #10:0: Audio: mp3, 44100 Hz, stereo, s16p, 160 kb/s\\n    Stream #10:1: Video: mjpeg, yuvj444p(pc, bt470bg/unknown/unknown), 300x298 [SAR 1:1 DAR 150:149], 90k tbr, 90k tbn, 90k tbc\\n    Metadata:\\n      comment         : Other\\n[mp3 @ 0x5622b60b3d40] Skipping 4 bytes of junk at 41151.\\n[mp3 @ 0x5622b60b3d40] Estimating duration from bitrate, this may be inaccurate\\nInput #11, mp3, from \\'H_/Music/Nicolas Repac/Swing swing/07 Swing Swing.mp3\\':\\n  Metadata:\\n    comment         : Recorded with TheLastRipper from my Playlist\\n    title           : Swing Swing\\n    artist          : Nicolas Repac\\n    album_artist    : Nicolas Repac\\n    album           : Swing swing\\n    TBPM            : 125\\n    com.wildbits.bpmer.trackdata: AAAAQAEAAAAAAAEfAACsRAB8CAAAWXPmAMkfJQAApbAAAICQAACmogAFRFwAdK1MAAAAfQAAAAAAAAAAAAAAAAAA\\n    iTunNORM        :  000006C7 00000000 0000B5CA 00000000 000186B7 00000000 00008000 00000000 00015FA7 00000000\\n    date            : 2004\\n    track           : 7/17\\n    composer        : Nicolas Repac\\n    disc            : 1/1\\n    genre           : Data & Other\\n  Duration: 00:03:03.94, start: 0.000000, bitrate: 129 kb/s\\n    Stream #11:0: Audio: mp3, 44100 Hz, stereo, s16p, 128 kb/s\\n    Stream #11:1: Video: mjpeg, yuvj444p(pc, bt470bg/unknown/unknown), 300x267 [SAR 1:1 DAR 100:89], 90k tbr, 90k tbn, 90k tbc\\n    Metadata:\\n      comment         : Other\\n[mov,mp4,m4a,3gp,3g2,mj2 @ 0x5622b6044560] stream 0, timescale not set\\nInput #12, mov,mp4,m4a,3gp,3g2,mj2, from \\'H_/Music/Cut Chemist, DJ Shadow, Double Dee, Stei/The Ultimate Lessons/06 Lesson 6 - The Lecture (Original.m4a\\':\\n  Metadata:\\n    major_brand     : M4A \\n    minor_version   : 0\\n    compatible_brands: M4A mp42isom\\n    creation_time   : 1995-08-28T05:46:50.000000Z\\n    iTunSMPB        :  00000000 00000840 0000025C 00000000010A2D64 00000000 00000000 00000000 00000000 00000000 00000000 00000000 00000000\\n    iTunNORM        :  00000946 00000AF9 00006AB7 000083A8 0003F7DF 0003F7DF 00007BA1 00007BA2 00024199 0001AD92\\n    title           : Lesson 6 - The Lecture (Original Un-Edited Version) [Cut Chemist]\\n    artist          : Cut Chemist\\n    album_artist    : Cut Chemist, DJ Shadow, Double Dee, Steinski & Shortkut\\n    album           : The Ultimate Lessons\\n    genre           : Hip Hop/Rap\\n    track           : 6/9\\n    disc            : 1/1\\n    compilation     : 0\\n    gapless_playback: 0\\n    date            : 2011-06-07T07:00:00Z\\n    account_id      : teticio@gmail.com\\n    copyright       : \\xe2\\x84\\x97 2011 Star Child\\n    rating          : 0\\n    account_type    : 0\\n    season_number   : 0\\n    episode_sort    : 0\\n    media_type      : 1\\n    purchase_date   : 2011-07-05 21:10:33\\n  Duration: 00:06:35.62, start: 0.047889, bitrate: 274 kb/s\\n    Stream #12:0(eng): Audio: aac (LC) (mp4a / 0x6134706D), 44100 Hz, stereo, fltp, 261 kb/s (default)\\n    Metadata:\\n      creation_time   : 1995-08-28T05:46:50.000000Z\\n    Stream #12:1: Video: mjpeg, yuvj444p(pc, bt470bg/unknown/unknown), 586x600 [SAR 72:72 DAR 293:300], 90k tbr, 90k tbn, 90k tbc\\n[mov,mp4,m4a,3gp,3g2,mj2 @ 0x5622b61b0280] stream 0, timescale not set\\nInput #13, mov,mp4,m4a,3gp,3g2,mj2, from \\'H_/Music/Compilations/70 Minutes Of Madness - Journeys By DJ S/18 Mag.m4a\\':\\n  Metadata:\\n    major_brand     : M4A \\n    minor_version   : 0\\n    compatible_brands: M4A mp42isom\\n    creation_time   : 2007-11-20T11:02:47.000000Z\\n    title           : Mag\\n    artist          : Coldcut\\n    composer        : S Booth/R Brown/A Maddocks\\n    album           : 70 Minutes Of Madness - Journeys By DJ Special Release\\n    genre           : Electronica/Dance\\n    track           : 18/35\\n    disc            : 1/1\\n    date            : 2002\\n    compilation     : 1\\n    gapless_playback: 0\\n    encoder         : iTunes v7.4.3.1, QuickTime 7.2\\n    iTunSMPB        :  00000000 00000840 0000026C 00000000007ACD54 00000000 00000000 00000000 00000000 00000000 00000000 00000000 00000000\\n    iTunNORM        :  0000024F 0000023D 00001CF6 000019FB 0000E5BB 0000E251 0000711D 00007194 00008B14 00008B14\\n    iTunes_CDDB_IDs : 35+B88CA7EDE16CB0592566F6E8B2AC5021+447925\\n  Duration: 00:03:02.56, start: 0.047889, bitrate: 130 kb/s\\n    Stream #13:0(und): Audio: aac (LC) (mp4a / 0x6134706D), 44100 Hz, stereo, fltp, 128 kb/s (default)\\n    Metadata:\\n      creation_time   : 2007-11-20T11:02:47.000000Z\\n    Stream #13:1: Video: png, rgb24(pc), 240x240 [SAR 2835:2835 DAR 1:1], 90k tbr, 90k tbn, 90k tbc\\n[mov,mp4,m4a,3gp,3g2,mj2 @ 0x5622b61b93a0] stream 0, timescale not set\\nInput #14, mov,mp4,m4a,3gp,3g2,mj2, from \\'H_/Music/Cut Chemist, DJ Shadow, Double Dee, Stei/The Ultimate Lessons/07 Live Lesson A (Cut Chemist + Shor.m4a\\':\\n  Metadata:\\n    major_brand     : M4A \\n    minor_version   : 0\\n    compatible_brands: M4A mp42isom\\n    creation_time   : 2010-01-04T02:54:02.000000Z\\n    iTunSMPB        :  00000000 00000840 00000220 0000000000DEB9A0 00000000 00000000 00000000 00000000 00000000 00000000 00000000 00000000\\n    iTunNORM        :  00000AF7 00000B06 00005364 00005336 00042C1E 00042C1E 00007BA0 00007BA0 0003725C 000360F1\\n    title           : Live Lesson A (Cut Chemist + Shortkut)\\n    artist          : Cut Chemist & Shortkut\\n    album_artist    : Cut Chemist, DJ Shadow, Double Dee, Steinski & Shortkut\\n    album           : The Ultimate Lessons\\n    genre           : Hip Hop/Rap\\n    track           : 7/9\\n    disc            : 1/1\\n    compilation     : 0\\n    gapless_playback: 0\\n    date            : 2011-06-07T07:00:00Z\\n    account_id      : teticio@gmail.com\\n    copyright       : \\xe2\\x84\\x97 2011 Star Child\\n    rating          : 0\\n    account_type    : 0\\n    season_number   : 0\\n    episode_sort    : 0\\n    media_type      : 1\\n    purchase_date   : 2011-07-05 21:10:33\\n  Duration: 00:05:31.05, start: 0.047889, bitrate: 278 kb/s\\n    Stream #14:0(eng): Audio: aac (LC) (mp4a / 0x6134706D), 44100 Hz, stereo, fltp, 263 kb/s (default)\\n    Metadata:\\n      creation_time   : 2010-01-04T02:54:02.000000Z\\n    Stream #14:1: Video: mjpeg, yuvj444p(pc, bt470bg/unknown/unknown), 586x600 [SAR 72:72 DAR 293:300], 90k tbr, 90k tbn, 90k tbc\\n[mp3 @ 0x5622b62e3d00] Skipping 4 bytes of junk at 197300.\\n[mp3 @ 0x5622b62e3d00] Estimating duration from bitrate, this may be inaccurate\\nInput #15, mp3, from \\'H_/Music/Jurassic 5/Jurassic 5 LP/Lesson 6_ The Lecture.mp3\\':\\n  Metadata:\\n    comment         : Recorded with TheLastRipper from my Playlist\\n    title           : Lesson 6: The Lecture\\n    artist          : Jurassic 5\\n    album_artist    : Jurassic 5\\n    album           : Jurassic 5 LP\\n    TBPM            : 115\\n    com.wildbits.bpmer.trackdata: AAAAQAEAAAAAAAEfAACsRADgiwAAR+WkAS1fjAAAtAoAALQKAAC0pAANkWwA3Q2sAAAAcwAAAAAAAAAAAAAAAAAA\\n    iTunNORM        :  000001C7 00000000 00000D14 00000000 00029855 00000000 00007DE5 00000000 0003D090 00000000\\n  Duration: 00:05:32.94, start: 0.000000, bitrate: 132 kb/s\\n    Stream #15:0: Audio: mp3, 44100 Hz, stereo, s16p, 128 kb/s\\n    Stream #15:1: Video: png, rgb24(pc), 300x300 [SAR 2835:2835 DAR 1:1], 90k tbr, 90k tbn, 90k tbc\\n    Metadata:\\n      comment         : Other\\n[mp3 @ 0x5622b62edc80] Estimating duration from bitrate, this may be inaccurate\\nInput #16, mp3, from \\'H_/Music/Cut Chemist/Paul\\'s Second Compilation/02 (My 1st) Big Break.mp3\\':\\n  Metadata:\\n    iTunPGAP        : 0\\n    encoded_by      : iTunes v7.0.2\\n    iTunSMPB        :  00000000 00000210 00000888 0000000000B64BE8 00000000 0052A110 00000000 00000000 00000000 00000000 00000000 00000000\\n    iTunes_CDDB_1   : E1100712+307916+18+150+10659+31923+49566+60907+77199+94187+113634+141799+162016+174550+188884+208659+221278+236275+249991+271079+287598\\n    iTunes_CDDB_TrackNumber: 18\\n    album           : Paul\\'s Second Compilation\\n    TBPM            : 94\\n    iTunNORM        :  000001BC 00000000 000012A9 00000000 000186A0 00000000 00008000 00000000 000186A0 00000000\\n    artist          : Cut Chemist\\n    title           : (My 1st) Big Break\\n    date            : 2006\\n    track           : 2/12\\n    disc            : 1/1\\n    genre           : Progressive Rap/Hip-Hop\\n    comment         : Cleaned by TuneUp!\\n  Duration: 00:04:30.97, start: 0.000000, bitrate: 162 kb/s\\n    Stream #16:0: Audio: mp3, 44100 Hz, stereo, s16p, 160 kb/s\\n    Stream #16:1: Video: mjpeg, yuvj444p(pc, bt470bg/unknown/unknown), 300x298 [SAR 1:1 DAR 150:149], 90k tbr, 90k tbn, 90k tbc\\n    Metadata:\\n      comment         : Other\\nCannot read BOM value, input too short\\nError reading frame TLEN, skipped\\n[mp3 @ 0x5622b62c04a0] Estimating duration from bitrate, this may be inaccurate\\nInput #17, mp3, from \\'H_/Music/Compilations/Night Dubbin\\' Disc1/08 The Key [Dub].mp3\\':\\n  Metadata:\\n    title           : The Key [Dub]\\n    TBPM            : 124\\n    track           : 08\\n    artist          : Wuf Ticket\\n    genre           : Disco\\n    compilation     : 1\\n    iTunPGAP        : 1\\n    album_artist    : Dimitri From Paris / Idjut Boys\\n    album           : Night Dubbin\\' Disc1\\n    iTunNORM        :  000010F5 0000084E 000055F1 00002312 00027117 0000C367 00008000 00007F35 00004E20 00004E37\\n    date            : 2009\\n  Duration: 00:05:41.19, start: 0.000000, bitrate: 320 kb/s\\n    Stream #17:0: Audio: mp3, 44100 Hz, stereo, s16p, 320 kb/s\\n    Stream #17:1: Video: mjpeg, yuvj420p(pc, bt470bg/unknown/unknown), 500x500 [SAR 96:96 DAR 1:1], 90k tbr, 90k tbn, 90k tbc\\n    Metadata:\\n      comment         : Cover (front)\\n[mov,mp4,m4a,3gp,3g2,mj2 @ 0x5622b62de7c0] stream 0, timescale not set\\nInput #18, mov,mp4,m4a,3gp,3g2,mj2, from \\'H_/Music/Cut Chemist, DJ Shadow, Double Dee, Stei/The Ultimate Lessons/04 Lesson 4 (DJ Shadow).m4a\\':\\n  Metadata:\\n    major_brand     : M4A \\n    minor_version   : 0\\n    compatible_brands: M4A mp42isom\\n    creation_time   : 2026-07-27T07:29:14.000000Z\\n    iTunSMPB        :  00000000 00000840 0000007C 0000000001399F44 00000000 00000000 00000000 00000000 00000000 00000000 00000000 00000000\\n    iTunNORM        :  000005DA 0000064A 000042EB 00004472 0006A1F6 0006A1F6 00007B9F 00007B9B 00040095 00065F34\\n    title           : Lesson 4 (DJ Shadow)\\n    artist          : DJ Shadow\\n    album_artist    : Cut Chemist, DJ Shadow, Double Dee, Steinski & Shortkut\\n    album           : The Ultimate Lessons\\n    genre           : Hip Hop/Rap\\n    track           : 4/9\\n    disc            : 1/1\\n    compilation     : 0\\n    gapless_playback: 0\\n    date            : 2011-06-07T07:00:00Z\\n    account_id      : teticio@gmail.com\\n    copyright       : \\xe2\\x84\\x97 2011 Star Child\\n    rating          : 0\\n    account_type    : 0\\n    season_number   : 0\\n    episode_sort    : 0\\n    media_type      : 1\\n    purchase_date   : 2011-07-05 21:10:33\\n  Duration: 00:07:46.12, start: 0.047889, bitrate: 274 kb/s\\n    Stream #18:0(eng): Audio: aac (LC) (mp4a / 0x6134706D), 44100 Hz, stereo, fltp, 263 kb/s (default)\\n    Metadata:\\n      creation_time   : 2026-07-27T07:29:14.000000Z\\n    Stream #18:1: Video: mjpeg, yuvj444p(pc, bt470bg/unknown/unknown), 586x600 [SAR 72:72 DAR 293:300], 90k tbr, 90k tbn, 90k tbc\\n[mp3 @ 0x5622b643fd60] Estimating duration from bitrate, this may be inaccurate\\nInput #19, mp3, from \\'H_/Music/The Prodigy/The Fat Of The Land/06 Mind Fields.mp3\\':\\n  Metadata:\\n    comment         : 0\\n    encoded_by      : iTunes v7.4.2\\n    TBPM            : 120\\n    title           : Mind Fields\\n    date            : 1997\\n    publisher       : Sony\\n    genre           : Electronica/Dance\\n    album           : The Fat Of The Land\\n    track           : 6\\n    album_artist    : The Prodigy\\n    composer        : L. Howlett\\n    artist          : The Prodigy\\n    iTunes_CDDB_IDs : 10+9B2637B1A57369A457B1B1D911292D93+558337\\n    iTunNORM        :  00000D8A 00000000 0000540E 00000000 0004E217 00000000 00008000 00000000 00013897 00000000\\n  Duration: 00:05:39.99, start: 0.000000, bitrate: 162 kb/s\\n    Stream #19:0: Audio: mp3, 44100 Hz, stereo, s16p, 160 kb/s\\n    Stream #19:1: Video: mjpeg, yuvj444p(pc, bt470bg/unknown/unknown), 301x300 [SAR 1:1 DAR 301:300], 90k tbr, 90k tbn, 90k tbc\\n    Metadata:\\n      comment         : Other\\n[mp3 @ 0x5622b6411d00] Skipping 4 bytes of junk at 59802.\\n[mp3 @ 0x5622b6411d00] Estimating duration from bitrate, this may be inaccurate\\nInput #20, mp3, from \\'H_/Music/D.Kay/The Prophet EP/The Prophet.mp3\\':\\n  Metadata:\\n    comment         : Recorded with TheLastRipper from  drumnbass Tag Radio\\n    title           : The Prophet\\n    artist          : D.Kay\\n    album_artist    : D.Kay\\n    album           : The Prophet EP\\n    TBPM            : 112\\n    com.wildbits.bpmer.trackdata: AAAAQAEAAAAAAAEfAACsRAEYcQAAVVAQAKE/BgAAuJgAAHsQAAC4mAAIc5ABATpMAAAAcAAAAAAAAAAAAAAAAAAA\\n    iTunNORM        :  0000021C 00000000 00005163 00000000 0004BAF0 00000000 00008000 00000000 00011187 00000000\\n  Duration: 00:06:56.84, start: 0.000000, bitrate: 129 kb/s\\n    Stream #20:0: Audio: mp3, 44100 Hz, stereo, s16p, 128 kb/s\\n    Stream #20:1: Video: mjpeg, yuvj444p(pc, bt470bg/unknown/unknown), 130x130 [SAR 1:1 DAR 1:1], 90k tbr, 90k tbn, 90k tbc\\n    Metadata:\\n      comment         : Other\\n[mov,mp4,m4a,3gp,3g2,mj2 @ 0x5622b64e5aa0] stream 0, timescale not set\\nInput #21, mov,mp4,m4a,3gp,3g2,mj2, from \\'H_/Music/Compilations/Logical Progression Level 2 [Disc 1]/1-01 Visions of Mars.m4a\\':\\n  Metadata:\\n    major_brand     : M4A \\n    minor_version   : 0\\n    compatible_brands: M4A mp42isom\\n    creation_time   : 2007-11-20T11:05:49.000000Z\\n    title           : Visions of Mars\\n    artist          : Blame\\n    composer        : C. Shafie & Simon Donohue\\n    album           : Logical Progression Level 2 [Disc 1]\\n    genre           : Electronica/Dance\\n    track           : 1/9\\n    disc            : 1/2\\n    date            : 1997\\n    compilation     : 1\\n    gapless_playback: 0\\n    encoder         : iTunes v7.4.3.1, QuickTime 7.2\\n    iTunSMPB        :  00000000 00000840 00000158 0000000001547E68 00000000 00000000 00000000 00000000 00000000 00000000 00000000 00000000\\n    iTunNORM        :  000010EE 00000CED 0000957C 00006750 000347DC 00029232 00007C48 00007C48 0002C08E 0002C08E\\n    iTunes_CDDB_IDs : 9+C63916942B138A98B637BD6441283202+4755510\\n  Duration: 00:08:26.06, start: 0.047889, bitrate: 130 kb/s\\n    Stream #21:0(und): Audio: aac (LC) (mp4a / 0x6134706D), 44100 Hz, stereo, fltp, 128 kb/s (default)\\n    Metadata:\\n      creation_time   : 2007-11-20T11:05:49.000000Z\\n    Stream #21:1: Video: png, rgb24(pc), 200x175 [SAR 2835:2835 DAR 8:7], 90k tbr, 90k tbn, 90k tbc\\n[mp3 @ 0x5622b643c2c0] Skipping 4 bytes of junk at 76729.\\n[mp3 @ 0x5622b643c2c0] Estimating duration from bitrate, this may be inaccurate\\nInput #22, mp3, from \\'H_/Music/Roni Size/Breakbeat Era - Ultra Obscene/Terrible Funk.mp3\\':\\n  Metadata:\\n    comment         : Recorded with TheLastRipper from my Playlist\\n    title           : Terrible Funk\\n    artist          : Roni Size\\n    album_artist    : Roni Size\\n    album           : Breakbeat Era - Ultra Obscene\\n    TBPM            : 170\\n    com.wildbits.bpmer.trackdata: AAAAQAEAAAAAAAEfAACsRADklgAAUJ8RAMxNuQAAeZoAALfoAAB5mgASISQA4rC8AAAAqgAAAAAAAAAAAAAAAAAA\\n    iTunNORM        :  0000028D 00000000 00001F43 00000000 000186B7 00000000 00008000 00000000 000186B7 00000000\\n  Duration: 00:05:38.97, start: 0.000000, bitrate: 129 kb/s\\n    Stream #22:0: Audio: mp3, 44100 Hz, stereo, s16p, 128 kb/s\\n    Stream #22:1: Video: png, rgb24(pc), 200x200 [SAR 2835:2835 DAR 1:1], 90k tbr, 90k tbn, 90k tbc\\n    Metadata:\\n      comment         : Other\\n[mov,mp4,m4a,3gp,3g2,mj2 @ 0x5622b657b800] stream 0, timescale not set\\nInput #23, mov,mp4,m4a,3gp,3g2,mj2, from \\'H_/Music/Compilations/Bukem in Session/16 Not Forgotten.m4a\\':\\n  Metadata:\\n    major_brand     : M4A \\n    minor_version   : 0\\n    compatible_brands: M4A mp42isom\\n    creation_time   : 2011-11-25T13:04:14.000000Z\\n    iTunSMPB        :  00000000 00000840 00000056 0000000000CE3F6A 00000000 00000000 00000000 00000000 00000000 00000000 00000000 00000000\\n    iTunNORM        :  00000D88 00000EB5 0000530A 00006164 0001C4CA 0002A448 00007951 00007951 00015F34 00015F34\\n    title           : Not Forgotten\\n    artist          : Paul SG\\n    album_artist    : Various Artists\\n    composer        : P. Biegel\\n    album           : Bukem in Session\\n    genre           : Dance\\n    track           : 16/18\\n    disc            : 1/1\\n    compilation     : 1\\n    gapless_playback: 0\\n    date            : 2013-08-23T07:00:00Z\\n    account_id      : teticio@gmail.com\\n    copyright       : \\xe2\\x84\\x97 goodlooking\\n    rating          : 0\\n    media_type      : 1\\n    purchase_date   : 2014-02-10 19:00:21\\n    iTunMOVI        : <?xml version=\"1.0\" encoding=\"UTF-8\"?>\\n                    : <!DOCTYPE plist PUBLIC \"-//Apple//DTD PLIST 1.0//EN\" \"http://www.apple.com/DTDs/PropertyList-1.0.dtd\">\\n                    : <plist version=\"1.0\">\\n                    : <dict>\\n                    : \\t<key>asset-info</key>\\n                    : \\t<dict>\\n                    : \\t\\t<key>file-size</key>\\n                    : \\t\\t<integer>10674179</integer>\\n                    : \\t\\t<key>flavor</key>\\n                    : \\t\\t<string>2:256</string>\\n                    : \\t</dict>\\n                    : </dict>\\n                    : </plist>\\n                    : \\n  Duration: 00:05:06.55, start: 0.047889, bitrate: 278 kb/s\\n    Stream #23:0(eng): Audio: aac (LC) (mp4a / 0x6134706D), 44100 Hz, stereo, fltp, 262 kb/s (default)\\n    Metadata:\\n      creation_time   : 2011-11-25T13:04:14.000000Z\\n    Stream #23:1: Video: mjpeg, yuvj444p(pc, bt470bg/unknown/unknown), 600x600 [SAR 300:300 DAR 1:1], 90k tbr, 90k tbn, 90k tbc\\n[mp3 @ 0x5622b66a0da0] Skipping 4 bytes of junk at 64926.\\n[mp3 @ 0x5622b66a0da0] Estimating duration from bitrate, this may be inaccurate\\nInput #24, mp3, from \\'H_/Music/RAM Trilogy/Chapter 5/Milky Way.mp3\\':\\n  Metadata:\\n    comment         : Recorded with TheLastRipper from my Playlist\\n    title           : Milky Way\\n    artist          : RAM Trilogy\\n    album_artist    : RAM Trilogy\\n    album           : Chapter 5\\n    TBPM            : 174\\n    com.wildbits.bpmer.trackdata: AAAAQAEAAAAAAAEfAACsRADodAAAYCQ7AQh5pwAAdwYAAHcGAAB3BgAO9hAAx/78AAAArgAAAAAAAAAAAAAAAAAA\\n    iTunNORM        :  000003DE 00000000 0001589A 00000000 00011187 00000000 00008000 00000000 00011187 00000000\\n  Duration: 00:05:44.67, start: 0.000000, bitrate: 129 kb/s\\n    Stream #24:0: Audio: mp3, 44100 Hz, stereo, s16p, 128 kb/s\\n    Stream #24:1: Video: png, rgb24(pc), 200x196 [SAR 2835:2835 DAR 50:49], 90k tbr, 90k tbn, 90k tbc\\n    Metadata:\\n      comment         : Other\\n[mp3 @ 0x5622b6684f20] Estimating duration from bitrate, this may be inaccurate\\nInput #25, mp3, from \\'H_/Music/LTJ Bukem/Logical Progression CD#1 (GLRCD001)/04 Logical Progression CD#1 - [04] -.mp3\\':\\n  Metadata:\\n    track           : 4\\n    encoded_by      :  [++|||  -=[-SirRED-]=-  |||  ..::sirred@wp.pl::..  |||++]\\n    copyright       : 1996 Good Looking\\n    genre           : Drum & Bass\\n    comment         : \\n    TBPM            : 160\\n    album           : Logical Progression CD#1 (GLRCD001)\\n    title           : Logical Progression CD#1 - [04] - PFM - One & Only\\n    artist          : LTJ Bukem\\n    iTunNORM        :  00000361 00000320 00002AF6 00002B01 0001ADF5 0001ADF5 00008000 00008000 000493F7 0005093E\\n    date            : 1996\\n  Duration: 00:08:50.11, start: 0.000000, bitrate: 193 kb/s\\n    Stream #25:0: Audio: mp3, 44100 Hz, stereo, s16p, 192 kb/s\\n    Stream #25:1: Video: png, rgb24(pc), 300x300 [SAR 2835:2835 DAR 1:1], 90k tbr, 90k tbn, 90k tbc\\n    Metadata:\\n      comment         : Other\\n[mp3 @ 0x5622b6692700] Estimating duration from bitrate, this may be inaccurate\\nInput #26, mp3, from \\'H_/Music/E-Z Rollers/Storm From The East/08 Walk This Land.mp3\\':\\n  Metadata:\\n    comment         : Recorded with TheLastRipper from Teticio%E2%80%99s+playlist\\n    album_artist    : E-Z Rollers\\n    album           : Storm From The East\\n    TBPM            : 163\\n    com.wildbits.bpmer.trackdata: AAAAQAEAAAAAAAEfAACsRAD1ZAAAek09AQVdxQAAfwQAAH9GAAC/IAAQrAAA7OHMAAAAowAAAAAAAAAAAAAAAAAA\\n    iTunNORM        :  000001BF 00000000 000016E6 00000000 0004BB35 00000000 000055F6 00000000 00033450 00000000\\n    artist          : E-ZRollers\\n    title           : Walk This Land\\n    date            : 1996\\n    track           : 8/10\\n    disc            : 1/1\\n    genre           : Jungle/Drum \\'N\\' Bass\\n  Duration: 00:06:03.87, start: 0.000000, bitrate: 132 kb/s\\n    Stream #26:0: Audio: mp3, 44100 Hz, stereo, s16p, 128 kb/s\\n    Stream #26:1: Video: mjpeg, yuvj444p(pc, bt470bg/unknown/unknown), 514x511 [SAR 1:1 DAR 514:511], 90k tbr, 90k tbn, 90k tbc\\n    Metadata:\\n      comment         : Other\\n[mov,mp4,m4a,3gp,3g2,mj2 @ 0x5622b67774e0] stream 0, timescale not set\\nInput #27, mov,mp4,m4a,3gp,3g2,mj2, from \\'H_/Music/\\xc3\\x82me/Rej/01 Rej.m4a\\':\\n  Metadata:\\n    major_brand     : M4A \\n    minor_version   : 0\\n    compatible_brands: M4A mp42isom\\n    creation_time   : 2016-11-30T18:00:44.000000Z\\n    iTunSMPB        :  00000000 00000840 00000110 0000000001442EB0 00000000 00000000 00000000 00000000 00000000 00000000 00000000 00000000\\n    iTunNORM        :  00000857 0000097C 00009681 0000C35A 0001E4B7 0001E4B7 00007F93 00007F97 000738E4 00017385\\n    title           : Rej\\n    artist          : \\xc3\\x82me\\n    album_artist    : \\xc3\\x82me\\n    album           : Rej\\n    genre           : Dance\\n    track           : 1/6\\n    disc            : 1/1\\n    compilation     : 0\\n    gapless_playback: 0\\n    date            : 2008-05-05T07:00:00Z\\n    account_id      : teticio@gmail.com\\n    copyright       : \\xe2\\x84\\x97 2006 Defected Records under exclusive license from Sonar Kollektiv\\n    rating          : 0\\n    media_type      : 1\\n    purchase_date   : 2013-11-23 19:01:55\\n    iTunMOVI        : <?xml version=\"1.0\" encoding=\"UTF-8\"?>\\n                    : <!DOCTYPE plist PUBLIC \"-//Apple//DTD PLIST 1.0//EN\" \"http://www.apple.com/DTDs/PropertyList-1.0.dtd\">\\n                    : <plist version=\"1.0\">\\n                    : <dict>\\n                    : \\t<key>asset-info</key>\\n                    : \\t<dict>\\n                    : \\t\\t<key>file-size</key>\\n                    : \\t\\t<integer>18731440</integer>\\n                    : \\t\\t<key>flavor</key>\\n                    : \\t\\t<string>2:256</string>\\n                    : \\t</dict>\\n                    : </dict>\\n                    : </plist>\\n                    : \\n  Duration: 00:08:01.81, start: 0.047889, bitrate: 311 kb/s\\n    Stream #27:0(eng): Audio: aac (LC) (mp4a / 0x6134706D), 44100 Hz, stereo, fltp, 300 kb/s (default)\\n    Metadata:\\n      creation_time   : 2016-11-30T18:00:44.000000Z\\n    Stream #27:1: Video: mjpeg, yuvj444p(pc, bt470bg/unknown/unknown), 600x600 [SAR 72:72 DAR 1:1], 90k tbr, 90k tbn, 90k tbc\\n[mov,mp4,m4a,3gp,3g2,mj2 @ 0x5622b68874e0] stream 0, timescale not set\\nInput #28, mov,mp4,m4a,3gp,3g2,mj2, from \\'H_/Music/Compilations/Hed Kandi Beach House 2011/43 Bangaday (Original Mix).m4a\\':\\n  Metadata:\\n    major_brand     : M4A \\n    minor_version   : 0\\n    compatible_brands: M4A mp42isom\\n    creation_time   : 2002-07-07T00:35:25.000000Z\\n    iTunSMPB        :  00000000 00000840 0000039F 000000000142C421 00000000 00000000 00000000 00000000 00000000 00000000 00000000 00000000\\n    iTunNORM        :  00000551 0000058D 000049B4 000045AA 0006DC02 0001908B 00007EFA 00007EF9 000599D5 0001F622\\n    title           : Bangaday (Original Mix)\\n    artist          : Robert Babicz\\n    album_artist    : Various Artists\\n    album           : Hed Kandi Beach House 2011\\n    genre           : Dance\\n    track           : 43/48\\n    disc            : 1/1\\n    compilation     : 1\\n    gapless_playback: 0\\n    date            : 2011-05-29T07:00:00Z\\n    account_id      : teticio@gmail.com\\n    copyright       : \\xe2\\x84\\x97 2011 Hed Kandi Records\\n    rating          : 0\\n    media_type      : 1\\n    purchase_date   : 2014-11-15 21:02:40\\n    iTunMOVI        : <?xml version=\"1.0\" encoding=\"UTF-8\"?>\\n                    : <!DOCTYPE plist PUBLIC \"-//Apple//DTD PLIST 1.0//EN\" \"http://www.apple.com/DTDs/PropertyList-1.0.dtd\">\\n                    : <plist version=\"1.0\">\\n                    : <dict>\\n                    : \\t<key>asset-info</key>\\n                    : \\t<dict>\\n                    : \\t\\t<key>file-size</key>\\n                    : \\t\\t<integer>16381550</integer>\\n                    : \\t\\t<key>flavor</key>\\n                    : \\t\\t<string>2:256</string>\\n                    : \\t</dict>\\n                    : </dict>\\n                    : </plist>\\n                    : \\n  Duration: 00:07:59.72, start: 0.047889, bitrate: 273 kb/s\\n    Stream #28:0(eng): Audio: aac (LC) (mp4a / 0x6134706D), 44100 Hz, stereo, fltp, 262 kb/s (default)\\n    Metadata:\\n      creation_time   : 2002-07-07T00:35:25.000000Z\\n    Stream #28:1: Video: mjpeg, yuvj444p(pc, bt470bg/unknown/unknown), 600x600 [SAR 100:100 DAR 1:1], 90k tbr, 90k tbn, 90k tbc\\n[mov,mp4,m4a,3gp,3g2,mj2 @ 0x5622b688d900] stream 0, timescale not set\\nInput #29, mov,mp4,m4a,3gp,3g2,mj2, from \\'H_/Music/Sven V\\xc3\\xa4th/In the Mix_ The Sound of the Sixteenth S/14 Eclipse.m4a\\':\\n  Metadata:\\n    major_brand     : M4A \\n    minor_version   : 0\\n    compatible_brands: M4A mp42isom\\n    creation_time   : 2024-07-16T09:48:02.000000Z\\n    iTunSMPB        :  00000000 00000840 000002C9 0000000001638CF7 00000000 00000000 00000000 00000000 00000000 00000000 00000000 00000000\\n    iTunNORM        :  00000330 00000337 000036A0 0000290A 0006BF13 00014C10 00007D17 00007D17 00008385 00001153\\n    title           : Eclipse\\n    artist          : Tim Green\\n    album_artist    : Sven V\\xc3\\xa4th\\n    composer        : Tim Green\\n    album           : In the Mix: The Sound of the Sixteenth Season (Bonus Track Version)\\n    genre           : House\\n    track           : 14/30\\n    disc            : 1/1\\n    compilation     : 0\\n    gapless_playback: 0\\n    date            : 2015-11-20T08:00:00Z\\n    account_id      : teticio@gmail.com\\n    copyright       : \\xe2\\x84\\x97 2015 Cocoon Recordings\\n    rating          : 0\\n    media_type      : 1\\n    purchase_date   : 2016-09-05 17:23:23\\n    sort_name       : Eclipse\\n    sort_album      : In the Mix: The Sound of the Sixteenth Season (Bonus Track Version)\\n    sort_artist     : Tim Green\\n    iTunMOVI        : <?xml version=\"1.0\" encoding=\"UTF-8\"?>\\n                    : <!DOCTYPE plist PUBLIC \"-//Apple//DTD PLIST 1.0//EN\" \"http://www.apple.com/DTDs/PropertyList-1.0.dtd\">\\n                    : <plist version=\"1.0\">\\n                    : <dict>\\n                    : \\t<key>asset-info</key>\\n                    : \\t<dict>\\n                    : \\t\\t<key>file-size</key>\\n                    : \\t\\t<integer>17958056</integer>\\n                    : \\t\\t<key>flavor</key>\\n                    : \\t\\t<string>2:256</string>\\n                    : \\t</dict>\\n                    : </dict>\\n                    : </plist>\\n                    : \\n  Duration: 00:08:48.44, start: 0.047889, bitrate: 271 kb/s\\n    Stream #29:0(eng): Audio: aac (LC) (mp4a / 0x6134706D), 44100 Hz, stereo, fltp, 261 kb/s (default)\\n    Metadata:\\n      creation_time   : 2024-07-16T09:48:02.000000Z\\n    Stream #29:1: Video: mjpeg, yuvj444p(pc, bt470bg/unknown/unknown), 600x600 [SAR 1:1 DAR 1:1], 90k tbr, 90k tbn, 90k tbc\\nStream mapping:\\n  Stream #1:0 (mp3) -> loudnorm\\n  Stream #2:0 (mp3) -> concat:in1:a0\\n  Stream #3:0 (aac) -> concat:in2:a0\\n  Stream #4:0 (mp3) -> concat:in3:a0\\n  Stream #5:0 (aac) -> concat:in4:a0\\n  Stream #6:0 (mp3) -> concat:in5:a0\\n  Stream #7:0 (aac) -> concat:in6:a0\\n  Stream #8:0 (aac) -> concat:in7:a0\\n  Stream #9:0 (aac) -> concat:in8:a0\\n  Stream #10:0 (mp3) -> concat:in9:a0\\n  Stream #11:0 (mp3) -> concat:in10:a0\\n  Stream #12:0 (aac) -> concat:in11:a0\\n  Stream #13:0 (aac) -> concat:in12:a0\\n  Stream #14:0 (aac) -> concat:in13:a0\\n  Stream #15:0 (mp3) -> concat:in14:a0\\n  Stream #16:0 (mp3) -> concat:in15:a0\\n  Stream #17:0 (mp3) -> concat:in16:a0\\n  Stream #18:0 (aac) -> concat:in17:a0\\n  Stream #19:0 (mp3) -> concat:in18:a0\\n  Stream #20:0 (mp3) -> concat:in19:a0\\n  Stream #21:0 (aac) -> concat:in20:a0\\n  Stream #22:0 (mp3) -> concat:in21:a0\\n  Stream #23:0 (aac) -> concat:in22:a0\\n  Stream #24:0 (mp3) -> concat:in23:a0\\n  Stream #25:0 (mp3) -> concat:in24:a0\\n  Stream #26:0 (mp3) -> concat:in25:a0\\n  Stream #27:0 (aac) -> concat:in26:a0\\n  Stream #28:0 (aac) -> concat:in27:a0\\n  Stream #29:0 (aac) -> concat:in28:a0\\n  concat -> Stream #0:0 (libmp3lame)\\nPress [q] to stop, [?] for help\\nOutput #0, mp3, to \\'mix.mp3\\':\\n  Metadata:\\n    TALB            : Mix \\n    TPE1            : Deej-A.I. \\n    TIT2            : Mix\\n    TSSE            : Lavf57.83.100\\n    Stream #0:0: Audio: mp3 (libmp3lame), 48000 Hz, stereo, fltp (default)\\n    Metadata:\\n      encoder         : Lavc57.107.100 libmp3lame\\nsize=     162kB time=00:00:10.29 bitrate= 128.5kbits/s speed=20.5x    \\rsize=     256kB time=00:00:21.69 bitrate=  96.7kbits/s speed=21.6x    \\rsize=     512kB time=00:00:33.00 bitrate= 127.1kbits/s speed=  22x    \\rsize=     512kB time=00:00:44.40 bitrate=  94.5kbits/s speed=22.2x    \\rsize=     768kB time=00:00:55.80 bitrate= 112.7kbits/s speed=22.3x    \\rsize=    1024kB time=00:01:07.08 bitrate= 125.1kbits/s speed=22.3x    \\rsize=    1024kB time=00:01:18.48 bitrate= 106.9kbits/s speed=22.4x    \\rsize=    1280kB time=00:01:29.68 bitrate= 116.9kbits/s speed=22.4x    \\rsize=    1536kB time=00:01:40.99 bitrate= 124.6kbits/s speed=22.4x    \\rsize=    1536kB time=00:01:52.20 bitrate= 112.1kbits/s speed=22.4x    \\rsize=    1792kB time=00:02:03.48 bitrate= 118.9kbits/s speed=22.4x    \\rsize=    2048kB time=00:02:14.88 bitrate= 124.4kbits/s speed=22.4x    \\rsize=    2304kB time=00:02:27.81 bitrate= 127.7kbits/s speed=22.7x    \\rsize=    2560kB time=00:02:48.91 bitrate= 124.2kbits/s speed=  24x    \\rsize=    2816kB time=00:03:11.25 bitrate= 120.6kbits/s speed=25.4x    \\rsize=    3328kB time=00:03:33.52 bitrate= 127.7kbits/s speed=26.6x    \\rsize=    3584kB time=00:03:55.77 bitrate= 124.5kbits/s speed=27.7x    \\rsize=    3840kB time=00:04:18.33 bitrate= 121.8kbits/s speed=28.6x    \\rsize=    4352kB time=00:04:40.84 bitrate= 126.9kbits/s speed=29.5x    \\rsize=    4608kB time=00:05:03.16 bitrate= 124.5kbits/s speed=30.2x    \\rsize=    5120kB time=00:05:33.81 bitrate= 125.6kbits/s speed=31.7x    \\rsize=    5632kB time=00:06:08.44 bitrate= 125.2kbits/s speed=33.4x    \\rsize=    6144kB time=00:06:42.60 bitrate= 125.0kbits/s speed=34.9x    \\rsize=    6656kB time=00:07:15.74 bitrate= 125.1kbits/s speed=36.2x    \\rsize=    7168kB time=00:07:48.43 bitrate= 125.4kbits/s speed=37.4x    \\rsize=    7680kB time=00:08:12.98 bitrate= 127.6kbits/s speed=37.8x    \\rsize=    7936kB time=00:08:38.25 bitrate= 125.4kbits/s speed=38.3x    \\rsize=    8448kB time=00:09:03.19 bitrate= 127.4kbits/s speed=38.7x    \\rsize=    8704kB time=00:09:28.70 bitrate= 125.4kbits/s speed=39.1x    \\rsize=    9216kB time=00:09:53.40 bitrate= 127.2kbits/s speed=39.5x    \\rsize=    9472kB time=00:10:18.21 bitrate= 125.5kbits/s speed=39.8x    \\rsize=    9984kB time=00:10:42.74 bitrate= 127.2kbits/s speed=40.1x    \\rsize=   10240kB time=00:11:08.28 bitrate= 125.5kbits/s speed=40.4x    \\rsize=   10752kB time=00:11:33.79 bitrate= 127.0kbits/s speed=40.7x    \\rsize=   11008kB time=00:11:58.99 bitrate= 125.4kbits/s speed=  41x    \\rsize=   11520kB time=00:12:24.50 bitrate= 126.8kbits/s speed=41.3x    \\rsize=   11776kB time=00:12:49.51 bitrate= 125.4kbits/s speed=41.5x    \\rsize=   12288kB time=00:13:14.40 bitrate= 126.7kbits/s speed=41.7x    \\rsize=   12800kB time=00:13:39.57 bitrate= 127.9kbits/s speed=  42x    \\rsize=   13056kB time=00:14:04.29 bitrate= 126.7kbits/s speed=42.1x    \\rsize=   13312kB time=00:14:27.04 bitrate= 125.8kbits/s speed=42.2x    \\rsize=   13824kB time=00:14:50.08 bitrate= 127.2kbits/s speed=42.3x    \\rsize=   14080kB time=00:15:13.27 bitrate= 126.3kbits/s speed=42.4x    \\rsize=   14592kB time=00:15:36.48 bitrate= 127.6kbits/s speed=42.5x    \\rsize=   14848kB time=00:15:59.61 bitrate= 126.8kbits/s speed=42.6x    \\rsize=   15360kB time=00:16:23.44 bitrate= 127.9kbits/s speed=42.7x    \\rsize=   15616kB time=00:16:49.15 bitrate= 126.8kbits/s speed=42.9x    \\rsize=   16128kB time=00:17:16.48 bitrate= 127.5kbits/s speed=43.1x    \\rsize=   16384kB time=00:17:44.18 bitrate= 126.1kbits/s speed=43.4x    \\rsize=   16896kB time=00:18:11.68 bitrate= 126.8kbits/s speed=43.6x    \\rsize=   17408kB time=00:18:40.17 bitrate= 127.3kbits/s speed=43.9x    \\rsize=   17920kB time=00:19:08.04 bitrate= 127.9kbits/s speed=44.1x    \\rsize=   18176kB time=00:19:35.06 bitrate= 126.7kbits/s speed=44.3x    \\rsize=   18688kB time=00:20:03.50 bitrate= 127.2kbits/s speed=44.5x    \\rsize=   19200kB time=00:20:34.94 bitrate= 127.4kbits/s speed=44.8x    \\rsize=   19712kB time=00:21:06.14 bitrate= 127.5kbits/s speed=45.2x    \\rsize=   20224kB time=00:21:37.72 bitrate= 127.7kbits/s speed=45.5x    \\rsize=   20736kB time=00:22:08.64 bitrate= 127.9kbits/s speed=45.8x    \\rsize=   21248kB time=00:22:40.99 bitrate= 127.9kbits/s speed=46.1x    \\rsize=   21504kB time=00:23:11.85 bitrate= 126.6kbits/s speed=46.3x    \\rsize=   22016kB time=00:23:42.12 bitrate= 126.8kbits/s speed=46.6x    \\rsize=   22528kB time=00:24:13.05 bitrate= 127.0kbits/s speed=46.8x    \\rsize=   23040kB time=00:24:43.63 bitrate= 127.2kbits/s speed=  47x    \\rsize=   23552kB time=00:25:10.82 bitrate= 127.7kbits/s speed=47.2x    \\rsize=   23808kB time=00:25:34.63 bitrate= 127.1kbits/s speed=47.2x    \\r[mp3 @ 0x5622b60b89a0] overread, skip -5 enddists: -2 -2\\n[mp3 @ 0x5622b60b89a0] overread, skip -6 enddists: -4 -4\\nsize=   24320kB time=00:25:58.75 bitrate= 127.8kbits/s speed=47.2x    \\rsize=   24576kB time=00:26:23.64 bitrate= 127.1kbits/s speed=47.2x    \\rsize=   25088kB time=00:26:49.17 bitrate= 127.7kbits/s speed=47.3x    \\rsize=   25344kB time=00:27:13.65 bitrate= 127.1kbits/s speed=47.3x    \\rsize=   25856kB time=00:27:37.89 bitrate= 127.8kbits/s speed=47.3x    \\r[mp3 @ 0x5622b60b89a0] overread, skip -7 enddists: -6 -6\\n    Last message repeated 1 times\\nsize=   26112kB time=00:28:02.71 bitrate= 127.1kbits/s speed=47.3x    \\r[mp3 @ 0x5622b60b89a0] overread, skip -6 enddists: -4 -4\\n[mp3 @ 0x5622b60b89a0] overread, skip -5 enddists: -2 -2\\nsize=   26624kB time=00:28:27.33 bitrate= 127.7kbits/s speed=47.4x    \\r[mp3 @ 0x5622b60b89a0] overread, skip -7 enddists: -6 -6\\nsize=   26880kB time=00:28:51.31 bitrate= 127.2kbits/s speed=47.4x    \\rsize=   27392kB time=00:29:15.09 bitrate= 127.9kbits/s speed=47.4x    \\rsize=   27648kB time=00:29:40.80 bitrate= 127.2kbits/s speed=47.4x    \\rsize=   28160kB time=00:30:05.13 bitrate= 127.8kbits/s speed=47.5x    \\rsize=   28416kB time=00:30:28.96 bitrate= 127.3kbits/s speed=47.5x    \\rsize=   28928kB time=00:30:52.96 bitrate= 127.9kbits/s speed=47.5x    \\rsize=   29184kB time=00:31:17.06 bitrate= 127.4kbits/s speed=47.5x    \\rsize=   29696kB time=00:31:40.56 bitrate= 128.0kbits/s speed=47.5x    \\rsize=   29952kB time=00:32:04.41 bitrate= 127.5kbits/s speed=47.5x    \\rsize=   30208kB time=00:32:29.20 bitrate= 127.0kbits/s speed=47.5x    \\rsize=   30720kB time=00:32:53.85 bitrate= 127.5kbits/s speed=47.5x    \\rsize=   30976kB time=00:33:18.69 bitrate= 127.0kbits/s speed=47.5x    \\rsize=   31488kB time=00:33:42.98 bitrate= 127.5kbits/s speed=47.5x    \\rsize=   31744kB time=00:34:07.70 bitrate= 127.0kbits/s speed=47.6x    \\rsize=   32256kB time=00:34:32.42 bitrate= 127.5kbits/s speed=47.6x    \\rsize=   32768kB time=00:34:57.14 bitrate= 128.0kbits/s speed=47.6x    \\rsize=   33024kB time=00:35:21.91 bitrate= 127.5kbits/s speed=47.6x    \\rsize=   33536kB time=00:35:46.56 bitrate= 128.0kbits/s speed=47.7x    \\rsize=   33792kB time=00:36:11.49 bitrate= 127.5kbits/s speed=47.7x    \\rsize=   34304kB time=00:36:36.26 bitrate= 128.0kbits/s speed=47.7x    \\rsize=   34560kB time=00:37:00.43 bitrate= 127.5kbits/s speed=47.7x    \\rsize=   35072kB time=00:37:25.12 bitrate= 128.0kbits/s speed=47.7x    \\rsize=   35328kB time=00:37:49.53 bitrate= 127.5kbits/s speed=47.7x    \\rsize=   35840kB time=00:38:14.16 bitrate= 128.0kbits/s speed=47.7x    \\rsize=   36096kB time=00:38:38.88 bitrate= 127.5kbits/s speed=47.8x    \\rsize=   36608kB time=00:39:04.70 bitrate= 127.9kbits/s speed=47.8x    \\rsize=   36864kB time=00:39:28.72 bitrate= 127.5kbits/s speed=47.8x    \\rsize=   37376kB time=00:39:53.30 bitrate= 127.9kbits/s speed=47.8x    \\rsize=   37632kB time=00:40:17.97 bitrate= 127.5kbits/s speed=47.8x    \\rsize=   38144kB time=00:40:43.84 bitrate= 127.9kbits/s speed=47.9x    \\rsize=   38400kB time=00:41:08.90 bitrate= 127.4kbits/s speed=47.9x    \\rsize=   38912kB time=00:41:33.79 bitrate= 127.8kbits/s speed=47.9x    \\rsize=   39168kB time=00:41:58.70 bitrate= 127.4kbits/s speed=47.9x    \\rsize=   39680kB time=00:42:24.62 bitrate= 127.7kbits/s speed=  48x    \\rsize=   40192kB time=00:42:52.29 bitrate= 128.0kbits/s speed=  48x    \\rsize=   40448kB time=00:43:20.37 bitrate= 127.4kbits/s speed=48.1x    \\rsize=   40960kB time=00:43:48.81 bitrate= 127.6kbits/s speed=48.2x    \\rsize=   41472kB time=00:44:17.30 bitrate= 127.9kbits/s speed=48.3x    \\rsize=   41728kB time=00:44:46.24 bitrate= 127.3kbits/s speed=48.4x    \\rsize=   42240kB time=00:45:14.18 bitrate= 127.5kbits/s speed=48.4x    \\rsize=   42752kB time=00:45:41.59 bitrate= 127.7kbits/s speed=48.5x    \\rsize=   43008kB time=00:46:08.47 bitrate= 127.3kbits/s speed=48.5x    \\rsize=   43520kB time=00:46:34.94 bitrate= 127.6kbits/s speed=48.6x    \\rsize=   44032kB time=00:47:02.73 bitrate= 127.8kbits/s speed=48.6x    \\rsize=   44288kB time=00:47:29.85 bitrate= 127.3kbits/s speed=48.7x    \\rsize=   44800kB time=00:47:58.41 bitrate= 127.5kbits/s speed=48.7x    \\rsize=   45312kB time=00:48:26.49 bitrate= 127.7kbits/s speed=48.8x    \\rsize=   45824kB time=00:48:54.38 bitrate= 127.9kbits/s speed=48.9x    \\rsize=   46080kB time=00:49:21.48 bitrate= 127.5kbits/s speed=48.9x    \\rsize=   46592kB time=00:49:49.70 bitrate= 127.7kbits/s speed=  49x    \\rsize=   47104kB time=00:50:15.62 bitrate= 128.0kbits/s speed=  49x    \\rsize=   47360kB time=00:50:42.86 bitrate= 127.5kbits/s speed=  49x    \\rsize=   47872kB time=00:51:10.03 bitrate= 127.7kbits/s speed=49.1x    \\rsize=   48384kB time=00:51:37.08 bitrate= 128.0kbits/s speed=49.1x    \\rsize=   48640kB time=00:52:05.44 bitrate= 127.5kbits/s speed=49.2x    \\rsize=   49152kB time=00:52:32.61 bitrate= 127.7kbits/s speed=49.2x    \\rsize=   49664kB time=00:53:00.52 bitrate= 127.9kbits/s speed=49.3x    \\rsize=   49920kB time=00:53:26.49 bitrate= 127.5kbits/s speed=49.3x    \\rsize=   50432kB time=00:53:51.45 bitrate= 127.8kbits/s speed=49.3x    \\rsize=   50688kB time=00:54:16.12 bitrate= 127.5kbits/s speed=49.3x    \\rsize=   51200kB time=00:54:40.41 bitrate= 127.9kbits/s speed=49.3x    \\rsize=   51456kB time=00:55:04.87 bitrate= 127.5kbits/s speed=49.3x    \\rsize=   51968kB time=00:55:29.52 bitrate= 127.9kbits/s speed=49.3x    \\rsize=   52224kB time=00:55:53.28 bitrate= 127.6kbits/s speed=49.3x    \\rsize=   52736kB time=00:56:16.92 bitrate= 127.9kbits/s speed=49.3x    \\rsize=   52992kB time=00:56:41.20 bitrate= 127.6kbits/s speed=49.3x    \\rsize=   53504kB time=00:57:05.47 bitrate= 128.0kbits/s speed=49.2x    \\r[mp3 @ 0x5622b62bee00] overread, skip -5 enddists: -2 -2\\nsize=   53760kB time=00:57:31.15 bitrate= 127.6kbits/s speed=49.3x    \\rsize=   54272kB time=00:57:55.22 bitrate= 127.9kbits/s speed=49.3x    \\rsize=   54528kB time=00:58:19.00 bitrate= 127.7kbits/s speed=49.2x    \\rsize=   55040kB time=00:58:43.32 bitrate= 128.0kbits/s speed=49.2x    \\rsize=   55296kB time=00:59:08.13 bitrate= 127.7kbits/s speed=49.2x    \\rsize=   55808kB time=00:59:32.49 bitrate= 128.0kbits/s speed=49.2x    \\rsize=   56064kB time=00:59:55.87 bitrate= 127.7kbits/s speed=49.2x    \\rsize=   56320kB time=01:00:19.03 bitrate= 127.5kbits/s speed=49.2x    \\rsize=   56832kB time=01:00:42.57 bitrate= 127.8kbits/s speed=49.2x    \\rsize=   57088kB time=01:01:06.48 bitrate= 127.6kbits/s speed=49.2x    \\rsize=   57600kB time=01:01:30.12 bitrate= 127.9kbits/s speed=49.2x    \\rsize=   57856kB time=01:01:54.16 bitrate= 127.6kbits/s speed=49.2x    \\rsize=   58368kB time=01:02:18.14 bitrate= 127.9kbits/s speed=49.1x    \\rsize=   58624kB time=01:02:41.56 bitrate= 127.7kbits/s speed=49.1x    \\rsize=   59136kB time=01:03:05.61 bitrate= 128.0kbits/s speed=49.1x    \\r[mp3 @ 0x5622b62c2020] Header missing\\nError while decoding stream #17:0: Invalid data found when processing input\\nsize=   59392kB time=01:03:29.16 bitrate= 127.7kbits/s speed=49.1x    \\rsize=   59904kB time=01:03:55.53 bitrate= 127.9kbits/s speed=49.1x    \\rsize=   60160kB time=01:04:22.29 bitrate= 127.6kbits/s speed=49.2x    \\rsize=   60672kB time=01:04:50.90 bitrate= 127.7kbits/s speed=49.2x    \\rsize=   61184kB time=01:05:18.16 bitrate= 127.9kbits/s speed=49.2x    \\rsize=   61440kB time=01:05:43.08 bitrate= 127.6kbits/s speed=49.3x    \\rsize=   61952kB time=01:06:10.34 bitrate= 127.8kbits/s speed=49.3x    \\rsize=   62464kB time=01:06:38.44 bitrate= 128.0kbits/s speed=49.3x    \\rsize=   62720kB time=01:07:06.48 bitrate= 127.6kbits/s speed=49.4x    \\rsize=   63232kB time=01:07:34.70 bitrate= 127.8kbits/s speed=49.4x    \\rsize=   63744kB time=01:08:01.10 bitrate= 128.0kbits/s speed=49.4x    \\rsize=   64000kB time=01:08:28.77 bitrate= 127.6kbits/s speed=49.5x    \\rsize=   64512kB time=01:08:56.78 bitrate= 127.8kbits/s speed=49.5x    \\rsize=   65024kB time=01:09:23.28 bitrate= 127.9kbits/s speed=49.5x    \\rsize=   65280kB time=01:09:48.48 bitrate= 127.7kbits/s speed=49.5x    \\rsize=   65792kB time=01:10:14.04 bitrate= 127.9kbits/s speed=49.5x    \\rsize=   66048kB time=01:10:39.36 bitrate= 127.6kbits/s speed=49.5x    \\rsize=   66560kB time=01:11:05.23 bitrate= 127.8kbits/s speed=49.6x    \\rsize=   66816kB time=01:11:27.98 bitrate= 127.6kbits/s speed=49.5x    \\rsize=   67328kB time=01:11:51.28 bitrate= 127.9kbits/s speed=49.5x    \\rsize=   67584kB time=01:12:14.88 bitrate= 127.7kbits/s speed=49.5x    \\rsize=   68096kB time=01:12:39.50 bitrate= 128.0kbits/s speed=49.5x    \\rsize=   68352kB time=01:13:03.93 bitrate= 127.7kbits/s speed=49.5x    \\rsize=   68864kB time=01:13:28.08 bitrate= 128.0kbits/s speed=49.5x    \\rsize=   69120kB time=01:13:50.52 bitrate= 127.8kbits/s speed=49.5x    \\rsize=   69376kB time=01:14:13.80 bitrate= 127.6kbits/s speed=49.4x    \\rsize=   69888kB time=01:14:38.23 bitrate= 127.8kbits/s speed=49.4x    \\rsize=   70144kB time=01:15:02.44 bitrate= 127.6kbits/s speed=49.4x    \\rsize=   70656kB time=01:15:26.13 bitrate= 127.9kbits/s speed=49.4x    \\rsize=   70912kB time=01:15:49.58 bitrate= 127.7kbits/s speed=49.4x    \\rsize=   71424kB time=01:16:13.20 bitrate= 127.9kbits/s speed=49.4x    \\rsize=   71680kB time=01:16:37.12 bitrate= 127.7kbits/s speed=49.4x    \\rsize=   72192kB time=01:17:02.37 bitrate= 127.9kbits/s speed=49.4x    \\rsize=   72448kB time=01:17:28.41 bitrate= 127.7kbits/s speed=49.4x    \\rsize=   72960kB time=01:17:55.32 bitrate= 127.8kbits/s speed=49.4x    \\r[mp3 @ 0x5622b6530640] overread, skip -5 enddists: -3 -3\\nsize=   73216kB time=01:18:21.86 bitrate= 127.6kbits/s speed=49.5x    \\rsize=   73728kB time=01:18:47.37 bitrate= 127.8kbits/s speed=49.5x    \\rsize=   74240kB time=01:19:13.15 bitrate= 128.0kbits/s speed=49.5x    \\rsize=   74496kB time=01:19:39.86 bitrate= 127.7kbits/s speed=49.5x    \\rsize=   75008kB time=01:20:07.60 bitrate= 127.8kbits/s speed=49.5x    \\rsize=   75520kB time=01:20:35.20 bitrate= 127.9kbits/s speed=49.6x    \\rsize=   75776kB time=01:21:01.56 bitrate= 127.7kbits/s speed=49.6x    \\rsize=   76288kB time=01:21:27.04 bitrate= 127.9kbits/s speed=49.6x    \\rsize=   76544kB time=01:21:53.66 bitrate= 127.6kbits/s speed=49.6x    \\rsize=   77056kB time=01:22:20.88 bitrate= 127.8kbits/s speed=49.6x    \\rsize=   77568kB time=01:22:48.57 bitrate= 127.9kbits/s speed=49.6x    \\r[mp3 @ 0x5622b6530640] overread, skip -6 enddists: -4 -4\\nsize=   77824kB time=01:23:15.48 bitrate= 127.6kbits/s speed=49.7x    \\r[mp3 @ 0x5622b6530640] overread, skip -7 enddists: -6 -6\\nsize=   78336kB time=01:23:41.78 bitrate= 127.8kbits/s speed=49.7x    \\rsize=   78592kB time=01:24:05.61 bitrate= 127.6kbits/s speed=49.7x    \\rsize=   79104kB time=01:24:29.37 bitrate= 127.8kbits/s speed=49.7x    \\rsize=   79360kB time=01:24:53.25 bitrate= 127.6kbits/s speed=49.7x    \\rsize=   79872kB time=01:25:17.16 bitrate= 127.9kbits/s speed=49.6x    \\rsize=   80128kB time=01:25:41.37 bitrate= 127.7kbits/s speed=49.6x    \\rsize=   80640kB time=01:26:05.30 bitrate= 127.9kbits/s speed=49.6x    \\rsize=   80896kB time=01:26:29.92 bitrate= 127.7kbits/s speed=49.6x    \\rsize=   81408kB time=01:26:54.62 bitrate= 127.9kbits/s speed=49.6x    \\rsize=   81664kB time=01:27:19.84 bitrate= 127.7kbits/s speed=49.6x    \\rsize=   82176kB time=01:27:44.61 bitrate= 127.9kbits/s speed=49.6x    \\rsize=   82432kB time=01:28:08.78 bitrate= 127.7kbits/s speed=49.6x    \\rsize=   82944kB time=01:28:32.30 bitrate= 127.9kbits/s speed=49.6x    \\rsize=   83200kB time=01:28:55.48 bitrate= 127.7kbits/s speed=49.6x    \\rsize=   83712kB time=01:29:19.08 bitrate= 128.0kbits/s speed=49.6x    \\rsize=   83968kB time=01:29:42.40 bitrate= 127.8kbits/s speed=49.6x    \\rsize=   84480kB time=01:30:06.96 bitrate= 128.0kbits/s speed=49.6x    \\rsize=   84736kB time=01:30:31.48 bitrate= 127.8kbits/s speed=49.6x    \\rsize=   85248kB time=01:30:56.61 bitrate= 128.0kbits/s speed=49.6x    \\rsize=   85504kB time=01:31:20.90 bitrate= 127.8kbits/s speed=49.6x    \\rsize=   85760kB time=01:31:44.73 bitrate= 127.6kbits/s speed=49.6x    \\rsize=   86272kB time=01:32:08.95 bitrate= 127.8kbits/s speed=49.6x    \\rsize=   86784kB time=01:32:34.72 bitrate= 128.0kbits/s speed=49.6x    \\rsize=   87040kB time=01:33:00.72 bitrate= 127.8kbits/s speed=49.6x    \\rsize=   87552kB time=01:33:27.26 bitrate= 127.9kbits/s speed=49.6x    \\rsize=   87808kB time=01:33:53.32 bitrate= 127.7kbits/s speed=49.6x    \\rsize=   88320kB time=01:34:19.56 bitrate= 127.8kbits/s speed=49.6x    \\rsize=   88832kB time=01:34:45.43 bitrate= 128.0kbits/s speed=49.6x    \\rsize=   89088kB time=01:35:11.44 bitrate= 127.8kbits/s speed=49.6x    \\rsize=   89600kB time=01:35:37.53 bitrate= 127.9kbits/s speed=49.6x    \\rsize=   89856kB time=01:36:03.52 bitrate= 127.7kbits/s speed=49.7x    \\rsize=   90368kB time=01:36:30.28 bitrate= 127.9kbits/s speed=49.7x    \\rsize=   90880kB time=01:36:56.71 bitrate= 128.0kbits/s speed=49.7x    \\rsize=   91136kB time=01:37:23.18 bitrate= 127.8kbits/s speed=49.7x    \\rsize=   91648kB time=01:37:48.62 bitrate= 127.9kbits/s speed=49.7x    \\rsize=   91904kB time=01:38:12.12 bitrate= 127.8kbits/s speed=49.7x    \\rsize=   92416kB time=01:38:36.81 bitrate= 128.0kbits/s speed=49.7x    \\rsize=   92672kB time=01:39:01.80 bitrate= 127.8kbits/s speed=49.7x    \\rsize=   93184kB time=01:39:26.54 bitrate= 127.9kbits/s speed=49.7x    \\rsize=   93440kB time=01:39:51.69 bitrate= 127.8kbits/s speed=49.7x    \\rsize=   93952kB time=01:40:15.74 bitrate= 127.9kbits/s speed=49.7x    \\rsize=   94208kB time=01:40:41.76 bitrate= 127.7kbits/s speed=49.7x    \\rsize=   94720kB time=01:41:09.28 bitrate= 127.8kbits/s speed=49.7x    \\rsize=   95232kB time=01:41:37.20 bitrate= 128.0kbits/s speed=49.7x    \\rsize=   95488kB time=01:42:03.76 bitrate= 127.7kbits/s speed=49.8x    \\rsize=   96000kB time=01:42:30.26 bitrate= 127.9kbits/s speed=49.8x    \\rsize=   96256kB time=01:42:54.88 bitrate= 127.7kbits/s speed=49.8x    \\rsize=   96768kB time=01:43:16.20 bitrate= 127.9kbits/s speed=49.7x    \\rsize=   97024kB time=01:43:39.19 bitrate= 127.8kbits/s speed=49.7x    \\rsize=   97536kB time=01:44:02.78 bitrate= 128.0kbits/s speed=49.7x    \\rsize=   97792kB time=01:44:25.08 bitrate= 127.9kbits/s speed=49.7x    \\rsize=   98048kB time=01:44:48.12 bitrate= 127.7kbits/s speed=49.7x    \\rsize=   98560kB time=01:45:11.49 bitrate= 127.9kbits/s speed=49.7x    \\rsize=   98816kB time=01:45:34.80 bitrate= 127.8kbits/s speed=49.7x    \\rsize=   99328kB time=01:45:58.92 bitrate= 128.0kbits/s speed=49.6x    \\rsize=   99584kB time=01:46:23.42 bitrate= 127.8kbits/s speed=49.6x    \\rsize=  100096kB time=01:46:46.10 bitrate= 128.0kbits/s speed=49.6x    \\rsize=  100352kB time=01:47:10.00 bitrate= 127.9kbits/s speed=49.6x    \\rsize=  100608kB time=01:47:33.19 bitrate= 127.7kbits/s speed=49.6x    \\rsize=  101120kB time=01:47:56.08 bitrate= 127.9kbits/s speed=49.6x    \\rsize=  101376kB time=01:48:18.55 bitrate= 127.8kbits/s speed=49.6x    \\rsize=  101888kB time=01:48:41.30 bitrate= 128.0kbits/s speed=49.6x    \\rsize=  102144kB time=01:49:04.70 bitrate= 127.9kbits/s speed=49.5x    \\rsize=  102400kB time=01:49:27.79 bitrate= 127.7kbits/s speed=49.5x    \\rsize=  102912kB time=01:49:51.31 bitrate= 127.9kbits/s speed=49.5x    \\rsize=  103168kB time=01:50:14.49 bitrate= 127.8kbits/s speed=49.5x    \\rsize=  103680kB time=01:50:38.35 bitrate= 127.9kbits/s speed=49.5x    \\rsize=  103936kB time=01:51:02.18 bitrate= 127.8kbits/s speed=49.5x    \\rsize=  104448kB time=01:51:25.53 bitrate= 128.0kbits/s speed=49.5x    \\rsize=  104704kB time=01:51:50.35 bitrate= 127.8kbits/s speed=49.5x    \\rsize=  105216kB time=01:52:14.92 bitrate= 128.0kbits/s speed=49.5x    \\rsize=  105472kB time=01:52:36.57 bitrate= 127.9kbits/s speed=49.5x    \\rsize=  105728kB time=01:52:58.12 bitrate= 127.8kbits/s speed=49.4x    \\rsize=  106240kB time=01:53:20.85 bitrate= 128.0kbits/s speed=49.4x    \\rsize=  106496kB time=01:53:44.95 bitrate= 127.8kbits/s speed=49.4x    \\rsize=  107008kB time=01:54:08.80 bitrate= 128.0kbits/s speed=49.4x    \\rsize=  107264kB time=01:54:32.97 bitrate= 127.8kbits/s speed=49.4x    \\rsize=  107520kB time=01:54:57.14 bitrate= 127.7kbits/s speed=49.4x    \\rsize=  108032kB time=01:55:20.23 bitrate= 127.9kbits/s speed=49.4x    \\rsize=  108288kB time=01:55:43.80 bitrate= 127.8kbits/s speed=49.4x    \\rsize=  108800kB time=01:56:07.46 bitrate= 127.9kbits/s speed=49.4x    \\rsize=  109056kB time=01:56:30.96 bitrate= 127.8kbits/s speed=49.4x    \\rsize=  109568kB time=01:56:54.28 bitrate= 128.0kbits/s speed=49.4x    \\rsize=  109824kB time=01:57:18.62 bitrate= 127.8kbits/s speed=49.4x    \\rsize=  110336kB time=01:57:44.32 bitrate= 127.9kbits/s speed=49.4x    \\rsize=  110592kB time=01:58:12.02 bitrate= 127.7kbits/s speed=49.4x    \\rsize=  111104kB time=01:58:40.53 bitrate= 127.8kbits/s speed=49.4x    \\rsize=  111616kB time=01:59:07.24 bitrate= 127.9kbits/s speed=49.4x    \\rsize=  111872kB time=01:59:34.82 bitrate= 127.7kbits/s speed=49.4x    \\rsize=  112384kB time=02:00:01.94 bitrate= 127.8kbits/s speed=49.5x    \\rsize=  112896kB time=02:00:28.63 bitrate= 127.9kbits/s speed=49.5x    \\rsize=  113152kB time=02:00:55.39 bitrate= 127.8kbits/s speed=49.5x    \\rsize=  113664kB time=02:01:21.64 bitrate= 127.9kbits/s speed=49.5x    \\rsize=  114176kB time=02:01:47.80 bitrate= 128.0kbits/s speed=49.5x    \\rsize=  114432kB time=02:02:13.29 bitrate= 127.8kbits/s speed=49.5x    \\rsize=  114944kB time=02:02:40.80 bitrate= 127.9kbits/s speed=49.5x    \\rsize=  115200kB time=02:03:07.99 bitrate= 127.7kbits/s speed=49.6x    \\rsize=  115712kB time=02:03:36.93 bitrate= 127.8kbits/s speed=49.6x    \\rsize=  116224kB time=02:03:59.80 bitrate= 128.0kbits/s speed=49.6x    \\rsize=  116480kB time=02:04:23.44 bitrate= 127.9kbits/s speed=49.6x    \\rsize=  116992kB time=02:04:47.47 bitrate= 128.0kbits/s speed=49.6x    \\rsize=  117248kB time=02:05:12.55 bitrate= 127.9kbits/s speed=49.6x    \\rsize=  117760kB time=02:05:37.63 bitrate= 128.0kbits/s speed=49.6x    \\rsize=  118016kB time=02:06:02.06 bitrate= 127.8kbits/s speed=49.6x    \\rsize=  118528kB time=02:06:27.40 bitrate= 128.0kbits/s speed=49.6x    \\rsize=  118784kB time=02:06:52.17 bitrate= 127.8kbits/s speed=49.6x    \\rsize=  119296kB time=02:07:14.95 bitrate= 128.0kbits/s speed=49.5x    \\rsize=  119552kB time=02:07:37.80 bitrate= 127.9kbits/s speed=49.5x    \\rsize=  119808kB time=02:08:01.63 bitrate= 127.8kbits/s speed=49.5x    \\rsize=  120320kB time=02:08:25.96 bitrate= 127.9kbits/s speed=49.5x    \\rsize=  120576kB time=02:08:51.09 bitrate= 127.8kbits/s speed=49.5x    \\rsize=  121088kB time=02:09:16.65 bitrate= 127.9kbits/s speed=49.5x    \\rsize=  121344kB time=02:09:41.44 bitrate= 127.7kbits/s speed=49.5x    \\rsize=  121856kB time=02:10:06.36 bitrate= 127.9kbits/s speed=49.5x    \\rsize=  122112kB time=02:10:30.91 bitrate= 127.7kbits/s speed=49.5x    \\rsize=  122624kB time=02:10:54.33 bitrate= 127.9kbits/s speed=49.5x    \\rsize=  122880kB time=02:11:17.40 bitrate= 127.8kbits/s speed=49.5x    \\rsize=  123392kB time=02:11:42.84 bitrate= 127.9kbits/s speed=49.5x    \\rsize=  123648kB time=02:12:07.17 bitrate= 127.8kbits/s speed=49.5x    \\rsize=  124160kB time=02:12:30.62 bitrate= 127.9kbits/s speed=49.5x    \\rsize=  124416kB time=02:12:53.06 bitrate= 127.8kbits/s speed=49.5x    \\rsize=  124928kB time=02:13:16.20 bitrate= 128.0kbits/s speed=49.5x    \\rsize=  125184kB time=02:13:39.21 bitrate= 127.9kbits/s speed=49.5x    \\rsize=  125440kB time=02:14:01.10 bitrate= 127.8kbits/s speed=49.5x    \\rsize=  125952kB time=02:14:23.20 bitrate= 128.0kbits/s speed=49.4x    \\rsize=  126208kB time=02:14:45.55 bitrate= 127.9kbits/s speed=49.4x    \\rsize=  126464kB time=02:15:08.11 bitrate= 127.8kbits/s speed=49.4x    \\rsize=  126976kB time=02:15:29.71 bitrate= 127.9kbits/s speed=49.4x    \\rsize=  127232kB time=02:15:52.48 bitrate= 127.8kbits/s speed=49.4x    \\rsize=  127744kB time=02:16:17.16 bitrate= 128.0kbits/s speed=49.4x    \\rsize=  128000kB time=02:16:40.65 bitrate= 127.9kbits/s speed=49.4x    \\rsize=  128256kB time=02:17:03.48 bitrate= 127.8kbits/s speed=49.4x    \\rsize=  128768kB time=02:17:27.36 bitrate= 127.9kbits/s speed=49.4x    \\rsize=  129024kB time=02:17:49.82 bitrate= 127.8kbits/s speed=49.3x    \\rsize=  129536kB time=02:18:12.24 bitrate= 128.0kbits/s speed=49.3x    \\rsize=  129792kB time=02:18:34.41 bitrate= 127.9kbits/s speed=49.3x    \\rsize=  130048kB time=02:18:57.57 bitrate= 127.8kbits/s speed=49.3x    \\rsize=  130560kB time=02:19:22.27 bitrate= 127.9kbits/s speed=49.3x    \\rsize=  130816kB time=02:19:44.73 bitrate= 127.8kbits/s speed=49.3x    \\rsize=  131328kB time=02:20:05.30 bitrate= 128.0kbits/s speed=49.3x    \\rsize=  131584kB time=02:20:26.37 bitrate= 127.9kbits/s speed=49.2x    \\rsize=  131840kB time=02:20:48.33 bitrate= 127.8kbits/s speed=49.2x    \\rsize=  132096kB time=02:21:10.46 bitrate= 127.8kbits/s speed=49.2x    \\rsize=  132608kB time=02:21:35.25 bitrate= 127.9kbits/s speed=49.2x    \\rsize=  132864kB time=02:21:58.36 bitrate= 127.8kbits/s speed=49.2x    \\rsize=  133376kB time=02:22:22.72 bitrate= 127.9kbits/s speed=49.2x    \\rsize=  133632kB time=02:22:48.19 bitrate= 127.8kbits/s speed=49.2x    \\rsize=  134144kB time=02:23:12.81 bitrate= 127.9kbits/s speed=49.2x    \\rsize=  134400kB time=02:23:36.48 bitrate= 127.8kbits/s speed=49.2x    \\rsize=  134912kB time=02:24:00.79 bitrate= 127.9kbits/s speed=49.2x    \\rsize=  135168kB time=02:24:24.26 bitrate= 127.8kbits/s speed=49.2x    \\rsize=  135680kB time=02:24:47.47 bitrate= 127.9kbits/s speed=49.2x    \\rsize=  135936kB time=02:25:12.24 bitrate= 127.8kbits/s speed=49.2x    \\rsize=  136448kB time=02:25:36.40 bitrate= 127.9kbits/s speed=49.2x    \\rsize=  136704kB time=02:26:00.50 bitrate= 127.8kbits/s speed=49.2x    \\rsize=  137216kB time=02:26:24.64 bitrate= 128.0kbits/s speed=49.2x    \\rsize=  137472kB time=02:26:49.00 bitrate= 127.8kbits/s speed=49.2x    \\rsize=  137984kB time=02:27:13.27 bitrate= 128.0kbits/s speed=49.2x    \\rsize=  138240kB time=02:27:36.60 bitrate= 127.9kbits/s speed=49.2x    \\rsize=  138496kB time=02:27:59.06 bitrate= 127.8kbits/s speed=49.2x    \\rsize=  139065kB time=02:28:20.13 bitrate= 128.0kbits/s speed=49.2x    \\nvideo:0kB audio:139065kB subtitle:0kB other streams:0kB global headers:0kB muxing overhead: 0.000204%\\n'"
      ]
     },
     "execution_count": 22,
     "metadata": {},
     "output_type": "execute_result"
    }
   ],
   "source": [
    "pipe.stderr.read()"
   ]
  },
  {
   "cell_type": "markdown",
   "metadata": {},
   "source": [
    "### Find a particular song, artist or album"
   ]
  },
  {
   "cell_type": "code",
   "execution_count": 19,
   "metadata": {
    "ExecuteTime": {
     "end_time": "2020-05-06T06:45:46.581234Z",
     "start_time": "2020-05-06T06:45:46.572087Z"
    }
   },
   "outputs": [
    {
     "name": "stdout",
     "output_type": "stream",
     "text": [
      "\"H:\\\\Music\\\\A Tribe Called Quest\\\\People's Instinctive Travels and the Pat\\\\06 Pubic Enemy.mp3\"\n",
      "\"H:\\\\Music\\\\A Tribe Called Quest\\\\We got it from Here... Thank You 4 Your\\\\2-01 Mobius.mp3\"\n",
      "\"H:\\\\Music\\\\A Tribe Called Quest\\\\People's Instinctive Travels and the Pat\\\\03 After Hours.mp3\"\n",
      "\"H:\\\\Music\\\\A Tribe Called Quest\\\\We got it from Here... Thank You 4 Your\\\\1-03 Whateva Will Be.mp3\"\n",
      "\"H:\\\\Music\\\\A Tribe Called Quest\\\\We got it from Here... Thank You 4 Your\\\\2-06 Conrad Tokyo.mp3\"\n",
      "\"H:\\\\Music\\\\A Tribe Called Quest\\\\We got it from Here... Thank You 4 Your\\\\2-08 The Donald.mp3\"\n",
      "\"H:\\\\Music\\\\A Tribe Called Quest\\\\We got it from Here... Thank You 4 Your\\\\1-01 The Space Program.mp3\"\n",
      "\"H:\\\\Music\\\\A Tribe Called Quest\\\\We got it from Here... Thank You 4 Your\\\\2-07 Ego.mp3\"\n",
      "\"H:\\\\Music\\\\A Tribe Called Quest\\\\We got it from Here... Thank You 4 Your\\\\1-04 Solid Wall of Sound.mp3\"\n",
      "\"H:\\\\Music\\\\A Tribe Called Quest\\\\The Anthology\\\\02 Luck Of Lucien.mp3\"\n",
      "\"H:\\\\Music\\\\A Tribe Called Quest\\\\The Low End Theory\\\\02 Buggin' Out.mp3\"\n",
      "\"H:\\\\Music\\\\A Tribe Called Quest\\\\The Low End Theory\\\\12 Skypager.mp3\"\n",
      "\"H:\\\\Music\\\\A Tribe Called Quest\\\\People's Instinctive Travels and the Pat\\\\04 Footprints.mp3\"\n",
      "\"H:\\\\Music\\\\A Tribe Called Quest\\\\The Anthology\\\\08 Can I Kick It_.mp3\"\n",
      "\"H:\\\\Music\\\\A Tribe Called Quest\\\\The Anthology\\\\14 Description Of A Fool.mp3\"\n",
      "\"H:\\\\Music\\\\A Tribe Called Quest\\\\People's Instinctive Travels and the Pat\\\\11 Mr. Muhammad.mp3\"\n",
      "\"H:\\\\Music\\\\A Tribe Called Quest\\\\We got it from Here... Thank You 4 Your\\\\1-05 Dis Generation.mp3\"\n",
      "\"H:\\\\Music\\\\A Tribe Called Quest\\\\People's Instinctive Travels and the Pat\\\\10 Rhythm (Devoted To The Art Of Mov.mp3\"\n",
      "\"H:\\\\Music\\\\A Tribe Called Quest\\\\We got it from Here... Thank You 4 Your\\\\2-04 Lost Somebody.mp3\"\n",
      "\"H:\\\\Music\\\\A Tribe Called Quest\\\\The Low End Theory\\\\01 Excursions.mp3\"\n",
      "\"H:\\\\Music\\\\A Tribe Called Quest\\\\People's Instinctive Travels and the Pat\\\\01 Push It Along.mp3\"\n",
      "\"H:\\\\Music\\\\A Tribe Called Quest\\\\The Low End Theory\\\\11 Jazz (We've Got).mp3\"\n",
      "\"H:\\\\Music\\\\A Tribe Called Quest\\\\People's Instinctive Travels and the Pat\\\\09 Youthful Expression.mp3\"\n",
      "\"H:\\\\Music\\\\A Tribe Called Quest\\\\The Low End Theory\\\\09 Check the Rhime.mp3\"\n",
      "\"H:\\\\Music\\\\A Tribe Called Quest\\\\The Low End Theory\\\\04 Butter.mp3\"\n",
      "\"H:\\\\Music\\\\A Tribe Called Quest\\\\We got it from Here... Thank You 4 Your\\\\2-03 The Killing Season.mp3\"\n",
      "\"H:\\\\Music\\\\A Tribe Called Quest\\\\We got it from Here... Thank You 4 Your\\\\2-05 Movin Backwards.mp3\"\n",
      "\"H:\\\\Music\\\\A Tribe Called Quest\\\\We got it from Here... Thank You 4 Your\\\\1-06 Kids....mp3\"\n",
      "\"H:\\\\Music\\\\A Tribe Called Quest\\\\unknown\\\\07 Bonita Applebum.mp3\"\n",
      "\"H:\\\\Music\\\\A Tribe Called Quest\\\\The Anthology\\\\05 I Left My Wallet In El Segundo.mp3\"\n",
      "\"H:\\\\Music\\\\A Tribe Called Quest\\\\We got it from Here... Thank You 4 Your\\\\2-02 Black Spasmodic.mp3\"\n",
      "\"H:\\\\Music\\\\A Tribe Called Quest\\\\We got it from Here... Thank You 4 Your\\\\1-02 We The People.....mp3\"\n",
      "\"H:\\\\Music\\\\A Tribe Called Quest\\\\We got it from Here... Thank You 4 Your\\\\1-08 Enough!!.mp3\"\n",
      "\"H:\\\\Music\\\\A Tribe Called Quest\\\\The Low End Theory\\\\05 Verses From the Abstract.mp3\"\n",
      "\"H:\\\\Music\\\\A Tribe Called Quest\\\\We got it from Here... Thank You 4 Your\\\\1-07 Melatonin.mp3\"\n",
      "\"H:\\\\Music\\\\A Tribe Called Quest\\\\The Low End Theory\\\\07 Vibes and Stuff.mp3\"\n",
      "\"H:\\\\Music\\\\A Tribe Called Quest\\\\The Low End Theory\\\\03 Rap Promoter.mp3\"\n",
      "\"H:\\\\Music\\\\A Tribe Called Quest\\\\People's Instinctive Travels and the Pat\\\\13 Go Ahead In The Rain.mp3\"\n",
      "\"H:\\\\Music\\\\A Tribe Called Quest\\\\The Low End Theory\\\\13 What_.mp3\"\n",
      "\"H:\\\\Music\\\\A Tribe Called Quest\\\\The Low End Theory\\\\14 Scenario.mp3\"\n"
     ]
    }
   ],
   "source": [
    "for mp3 in mp3tovec:\n",
    "    if mp3.lower().find('tribe') != -1:\n",
    "        print('\"'+ mp3.replace('\\\\', '\\\\\\\\') + '\"')"
   ]
  },
  {
   "cell_type": "code",
   "execution_count": null,
   "metadata": {},
   "outputs": [],
   "source": []
  }
 ],
 "metadata": {
  "kernelspec": {
   "display_name": "Python 3",
   "language": "python",
   "name": "python3"
  },
  "language_info": {
   "codemirror_mode": {
    "name": "ipython",
    "version": 3
   },
   "file_extension": ".py",
   "mimetype": "text/x-python",
   "name": "python",
   "nbconvert_exporter": "python",
   "pygments_lexer": "ipython3",
   "version": "3.8.2"
  },
  "nbTranslate": {
   "displayLangs": [
    "en",
    "es"
   ],
   "hotkey": "alt-t",
   "langInMainMenu": true,
   "sourceLang": "es",
   "targetLang": "en",
   "useGoogleTranslate": true
  },
  "toc": {
   "base_numbering": 1,
   "nav_menu": {},
   "number_sections": false,
   "sideBar": true,
   "skip_h1_title": false,
   "title_cell": "Table of Contents",
   "title_sidebar": "Contents",
   "toc_cell": false,
   "toc_position": {},
   "toc_section_display": true,
   "toc_window_display": false
  }
 },
 "nbformat": 4,
 "nbformat_minor": 2
}
